<?xml version="1.0" encoding="UTF-8" ?>
<svg version="1.1" width="185" height="185" xmlns="http://www.w3.org/2000/svg" shape-rendering="crispEdges">
<rect x="125" y="0" width="5" height="5" fill="#CE7ED5" />
<rect x="130" y="0" width="5" height="5" fill="#CE7ED5" />
<rect x="135" y="0" width="5" height="5" fill="#CE7ED5" />
<rect x="140" y="0" width="5" height="5" fill="#CE7ED5" />
<rect x="125" y="5" width="5" height="5" fill="#CE7ED5" />
<rect x="130" y="5" width="5" height="5" fill="#CE7ED5" />
<rect x="135" y="5" width="5" height="5" fill="#CE7ED5" />
<rect x="140" y="5" width="5" height="5" fill="#CE7ED5" />
<rect x="125" y="10" width="5" height="5" fill="#CE7ED5" />
<rect x="130" y="10" width="5" height="5" fill="#CE7ED5" />
<rect x="135" y="10" width="5" height="5" fill="#CE7ED5" />
<rect x="140" y="10" width="5" height="5" fill="#CE7ED5" />
<rect x="125" y="15" width="5" height="5" fill="#CE7ED5" />
<rect x="130" y="15" width="5" height="5" fill="#CE7ED5" />
<rect x="135" y="15" width="5" height="5" fill="#CE7ED5" />
<rect x="140" y="15" width="5" height="5" fill="#CE7ED5" />
<rect x="125" y="20" width="5" height="5" fill="#CE7ED5" />
<rect x="130" y="20" width="5" height="5" fill="#CE7ED5" />
<rect x="135" y="20" width="5" height="5" fill="#CE7ED5" />
<rect x="140" y="20" width="5" height="5" fill="#CE7ED5" />
<rect x="125" y="25" width="5" height="5" fill="#CE7ED5" />
<rect x="130" y="25" width="5" height="5" fill="#CE7ED5" />
<rect x="135" y="25" width="5" height="5" fill="#CE7ED5" />
<rect x="140" y="25" width="5" height="5" fill="#CE7ED5" />
<rect x="125" y="30" width="5" height="5" fill="#CE7ED5" />
<rect x="130" y="30" width="5" height="5" fill="#CE7ED5" />
<rect x="135" y="30" width="5" height="5" fill="#CE7ED5" />
<rect x="140" y="30" width="5" height="5" fill="#CE7ED5" />
<rect x="125" y="35" width="5" height="5" fill="#CE7ED5" />
<rect x="130" y="35" width="5" height="5" fill="#CE7ED5" />
<rect x="135" y="35" width="5" height="5" fill="#CE7ED5" />
<rect x="140" y="35" width="5" height="5" fill="#CE7ED5" />
<rect x="85" y="40" width="5" height="5" fill="#CE7ED5" />
<rect x="90" y="40" width="5" height="5" fill="#CE7ED5" />
<rect x="95" y="40" width="5" height="5" fill="#CE7ED5" />
<rect x="100" y="40" width="5" height="5" fill="#CE7ED5" />
<rect x="105" y="40" width="5" height="5" fill="#CE7ED5" />
<rect x="110" y="40" width="5" height="5" fill="#CE7ED5" />
<rect x="115" y="40" width="5" height="5" fill="#CE7ED5" />
<rect x="120" y="40" width="5" height="5" fill="#CE7ED5" />
<rect x="145" y="40" width="5" height="5" fill="#CE7ED5" />
<rect x="150" y="40" width="5" height="5" fill="#CE7ED5" />
<rect x="155" y="40" width="5" height="5" fill="#CE7ED5" />
<rect x="160" y="40" width="5" height="5" fill="#CE7ED5" />
<rect x="165" y="40" width="5" height="5" fill="#CE7ED5" />
<rect x="170" y="40" width="5" height="5" fill="#CE7ED5" />
<rect x="175" y="40" width="5" height="5" fill="#CE7ED5" />
<rect x="180" y="40" width="5" height="5" fill="#CE7ED5" />
<rect x="85" y="45" width="5" height="5" fill="#CE7ED5" />
<rect x="90" y="45" width="5" height="5" fill="#CE7ED5" />
<rect x="95" y="45" width="5" height="5" fill="#CE7ED5" />
<rect x="100" y="45" width="5" height="5" fill="#CE7ED5" />
<rect x="105" y="45" width="5" height="5" fill="#CE7ED5" />
<rect x="110" y="45" width="5" height="5" fill="#CE7ED5" />
<rect x="115" y="45" width="5" height="5" fill="#CE7ED5" />
<rect x="120" y="45" width="5" height="5" fill="#CE7ED5" />
<rect x="145" y="45" width="5" height="5" fill="#CE7ED5" />
<rect x="150" y="45" width="5" height="5" fill="#CE7ED5" />
<rect x="155" y="45" width="5" height="5" fill="#CE7ED5" />
<rect x="160" y="45" width="5" height="5" fill="#CE7ED5" />
<rect x="165" y="45" width="5" height="5" fill="#CE7ED5" />
<rect x="170" y="45" width="5" height="5" fill="#CE7ED5" />
<rect x="175" y="45" width="5" height="5" fill="#CE7ED5" />
<rect x="180" y="45" width="5" height="5" fill="#CE7ED5" />
<rect x="85" y="50" width="5" height="5" fill="#CE7ED5" />
<rect x="90" y="50" width="5" height="5" fill="#CE7ED5" />
<rect x="95" y="50" width="5" height="5" fill="#CE7ED5" />
<rect x="100" y="50" width="5" height="5" fill="#CE7ED5" />
<rect x="105" y="50" width="5" height="5" fill="#CE7ED5" />
<rect x="110" y="50" width="5" height="5" fill="#CE7ED5" />
<rect x="115" y="50" width="5" height="5" fill="#CE7ED5" />
<rect x="120" y="50" width="5" height="5" fill="#CE7ED5" />
<rect x="145" y="50" width="5" height="5" fill="#CE7ED5" />
<rect x="150" y="50" width="5" height="5" fill="#CE7ED5" />
<rect x="155" y="50" width="5" height="5" fill="#CE7ED5" />
<rect x="160" y="50" width="5" height="5" fill="#CE7ED5" />
<rect x="165" y="50" width="5" height="5" fill="#CE7ED5" />
<rect x="170" y="50" width="5" height="5" fill="#CE7ED5" />
<rect x="175" y="50" width="5" height="5" fill="#CE7ED5" />
<rect x="180" y="50" width="5" height="5" fill="#CE7ED5" />
<rect x="85" y="55" width="5" height="5" fill="#CE7ED5" />
<rect x="90" y="55" width="5" height="5" fill="#CE7ED5" />
<rect x="95" y="55" width="5" height="5" fill="#CE7ED5" />
<rect x="100" y="55" width="5" height="5" fill="#CE7ED5" />
<rect x="105" y="55" width="5" height="5" fill="#CE7ED5" />
<rect x="110" y="55" width="5" height="5" fill="#CE7ED5" />
<rect x="115" y="55" width="5" height="5" fill="#CE7ED5" />
<rect x="120" y="55" width="5" height="5" fill="#CE7ED5" />
<rect x="145" y="55" width="5" height="5" fill="#CE7ED5" />
<rect x="150" y="55" width="5" height="5" fill="#CE7ED5" />
<rect x="155" y="55" width="5" height="5" fill="#CE7ED5" />
<rect x="160" y="55" width="5" height="5" fill="#CE7ED5" />
<rect x="165" y="55" width="5" height="5" fill="#CE7ED5" />
<rect x="170" y="55" width="5" height="5" fill="#CE7ED5" />
<rect x="175" y="55" width="5" height="5" fill="#CE7ED5" />
<rect x="180" y="55" width="5" height="5" fill="#CE7ED5" />
<rect x="125" y="60" width="5" height="5" fill="#CE7ED5" />
<rect x="130" y="60" width="5" height="5" fill="#CE7ED5" />
<rect x="135" y="60" width="5" height="5" fill="#CE7ED5" />
<rect x="140" y="60" width="5" height="5" fill="#CE7ED5" />
<rect x="125" y="65" width="5" height="5" fill="#CE7ED5" />
<rect x="130" y="65" width="5" height="5" fill="#CE7ED5" />
<rect x="135" y="65" width="5" height="5" fill="#CE7ED5" />
<rect x="140" y="65" width="5" height="5" fill="#CE7ED5" />
<rect x="125" y="70" width="5" height="5" fill="#CE7ED5" />
<rect x="130" y="70" width="5" height="5" fill="#CE7ED5" />
<rect x="135" y="70" width="5" height="5" fill="#CE7ED5" />
<rect x="140" y="70" width="5" height="5" fill="#CE7ED5" />
<rect x="125" y="75" width="5" height="5" fill="#CE7ED5" />
<rect x="130" y="75" width="5" height="5" fill="#CE7ED5" />
<rect x="135" y="75" width="5" height="5" fill="#CE7ED5" />
<rect x="140" y="75" width="5" height="5" fill="#CE7ED5" />
<rect x="125" y="80" width="5" height="5" fill="#CE7ED5" />
<rect x="130" y="80" width="5" height="5" fill="#CE7ED5" />
<rect x="135" y="80" width="5" height="5" fill="#CE7ED5" />
<rect x="140" y="80" width="5" height="5" fill="#CE7ED5" />
<rect x="125" y="85" width="5" height="5" fill="#CE7ED5" />
<rect x="130" y="85" width="5" height="5" fill="#CE7ED5" />
<rect x="135" y="85" width="5" height="5" fill="#CE7ED5" />
<rect x="140" y="85" width="5" height="5" fill="#CE7ED5" />
<rect x="125" y="90" width="5" height="5" fill="#CE7ED5" />
<rect x="130" y="90" width="5" height="5" fill="#CE7ED5" />
<rect x="135" y="90" width="5" height="5" fill="#CE7ED5" />
<rect x="140" y="90" width="5" height="5" fill="#CE7ED5" />
<rect x="25" y="95" width="5" height="5" fill="#CE7ED5" />
<rect x="30" y="95" width="5" height="5" fill="#CE7ED5" />
<rect x="35" y="95" width="5" height="5" fill="#CE7ED5" />
<rect x="25" y="100" width="5" height="5" fill="#CE7ED5" />
<rect x="30" y="100" width="5" height="5" fill="#CE7ED5" />
<rect x="35" y="100" width="5" height="5" fill="#CE7ED5" />
<rect x="25" y="105" width="5" height="5" fill="#CE7ED5" />
<rect x="30" y="105" width="5" height="5" fill="#CE7ED5" />
<rect x="35" y="105" width="5" height="5" fill="#CE7ED5" />
<rect x="25" y="110" width="5" height="5" fill="#CE7ED5" />
<rect x="30" y="110" width="5" height="5" fill="#CE7ED5" />
<rect x="35" y="110" width="5" height="5" fill="#CE7ED5" />
<rect x="25" y="115" width="5" height="5" fill="#CE7ED5" />
<rect x="30" y="115" width="5" height="5" fill="#CE7ED5" />
<rect x="35" y="115" width="5" height="5" fill="#CE7ED5" />
<rect x="0" y="120" width="5" height="5" fill="#CE7ED5" />
<rect x="5" y="120" width="5" height="5" fill="#CE7ED5" />
<rect x="10" y="120" width="5" height="5" fill="#CE7ED5" />
<rect x="15" y="120" width="5" height="5" fill="#CE7ED5" />
<rect x="20" y="120" width="5" height="5" fill="#CE7ED5" />
<rect x="40" y="120" width="5" height="5" fill="#CE7ED5" />
<rect x="45" y="120" width="5" height="5" fill="#CE7ED5" />
<rect x="50" y="120" width="5" height="5" fill="#CE7ED5" />
<rect x="55" y="120" width="5" height="5" fill="#CE7ED5" />
<rect x="60" y="120" width="5" height="5" fill="#CE7ED5" />
<rect x="0" y="125" width="5" height="5" fill="#CE7ED5" />
<rect x="5" y="125" width="5" height="5" fill="#CE7ED5" />
<rect x="10" y="125" width="5" height="5" fill="#CE7ED5" />
<rect x="15" y="125" width="5" height="5" fill="#CE7ED5" />
<rect x="20" y="125" width="5" height="5" fill="#CE7ED5" />
<rect x="40" y="125" width="5" height="5" fill="#CE7ED5" />
<rect x="45" y="125" width="5" height="5" fill="#CE7ED5" />
<rect x="50" y="125" width="5" height="5" fill="#CE7ED5" />
<rect x="55" y="125" width="5" height="5" fill="#CE7ED5" />
<rect x="60" y="125" width="5" height="5" fill="#CE7ED5" />
<rect x="0" y="130" width="5" height="5" fill="#CE7ED5" />
<rect x="5" y="130" width="5" height="5" fill="#CE7ED5" />
<rect x="10" y="130" width="5" height="5" fill="#CE7ED5" />
<rect x="15" y="130" width="5" height="5" fill="#CE7ED5" />
<rect x="20" y="130" width="5" height="5" fill="#CE7ED5" />
<rect x="40" y="130" width="5" height="5" fill="#CE7ED5" />
<rect x="45" y="130" width="5" height="5" fill="#CE7ED5" />
<rect x="50" y="130" width="5" height="5" fill="#CE7ED5" />
<rect x="55" y="130" width="5" height="5" fill="#CE7ED5" />
<rect x="60" y="130" width="5" height="5" fill="#CE7ED5" />
<rect x="25" y="135" width="5" height="5" fill="#CE7ED5" />
<rect x="30" y="135" width="5" height="5" fill="#CE7ED5" />
<rect x="35" y="135" width="5" height="5" fill="#CE7ED5" />
<rect x="115" y="135" width="5" height="5" fill="#CE7ED5" />
<rect x="120" y="135" width="5" height="5" fill="#CE7ED5" />
<rect x="25" y="140" width="5" height="5" fill="#CE7ED5" />
<rect x="30" y="140" width="5" height="5" fill="#CE7ED5" />
<rect x="35" y="140" width="5" height="5" fill="#CE7ED5" />
<rect x="115" y="140" width="5" height="5" fill="#CE7ED5" />
<rect x="120" y="140" width="5" height="5" fill="#CE7ED5" />
<rect x="25" y="145" width="5" height="5" fill="#CE7ED5" />
<rect x="30" y="145" width="5" height="5" fill="#CE7ED5" />
<rect x="35" y="145" width="5" height="5" fill="#CE7ED5" />
<rect x="115" y="145" width="5" height="5" fill="#CE7ED5" />
<rect x="120" y="145" width="5" height="5" fill="#CE7ED5" />
<rect x="25" y="150" width="5" height="5" fill="#CE7ED5" />
<rect x="30" y="150" width="5" height="5" fill="#CE7ED5" />
<rect x="35" y="150" width="5" height="5" fill="#CE7ED5" />
<rect x="115" y="150" width="5" height="5" fill="#CE7ED5" />
<rect x="120" y="150" width="5" height="5" fill="#CE7ED5" />
<rect x="25" y="155" width="5" height="5" fill="#CE7ED5" />
<rect x="30" y="155" width="5" height="5" fill="#CE7ED5" />
<rect x="35" y="155" width="5" height="5" fill="#CE7ED5" />
<rect x="95" y="155" width="5" height="5" fill="#CE7ED5" />
<rect x="100" y="155" width="5" height="5" fill="#CE7ED5" />
<rect x="105" y="155" width="5" height="5" fill="#CE7ED5" />
<rect x="110" y="155" width="5" height="5" fill="#CE7ED5" />
<rect x="125" y="155" width="5" height="5" fill="#CE7ED5" />
<rect x="130" y="155" width="5" height="5" fill="#CE7ED5" />
<rect x="135" y="155" width="5" height="5" fill="#CE7ED5" />
<rect x="140" y="155" width="5" height="5" fill="#CE7ED5" />
<rect x="95" y="160" width="5" height="5" fill="#CE7ED5" />
<rect x="100" y="160" width="5" height="5" fill="#CE7ED5" />
<rect x="105" y="160" width="5" height="5" fill="#CE7ED5" />
<rect x="110" y="160" width="5" height="5" fill="#CE7ED5" />
<rect x="125" y="160" width="5" height="5" fill="#CE7ED5" />
<rect x="130" y="160" width="5" height="5" fill="#CE7ED5" />
<rect x="135" y="160" width="5" height="5" fill="#CE7ED5" />
<rect x="140" y="160" width="5" height="5" fill="#CE7ED5" />
<rect x="115" y="165" width="5" height="5" fill="#CE7ED5" />
<rect x="120" y="165" width="5" height="5" fill="#CE7ED5" />
<rect x="115" y="170" width="5" height="5" fill="#CE7ED5" />
<rect x="120" y="170" width="5" height="5" fill="#CE7ED5" />
<rect x="115" y="175" width="5" height="5" fill="#CE7ED5" />
<rect x="120" y="175" width="5" height="5" fill="#CE7ED5" />
<rect x="115" y="180" width="5" height="5" fill="#CE7ED5" />
<rect x="120" y="180" width="5" height="5" fill="#CE7ED5" />
</svg>