<?xml version="1.0" encoding="UTF-8" ?>
<svg version="1.1" width="111" height="111" xmlns="http://www.w3.org/2000/svg" shape-rendering="crispEdges">
<rect x="75" y="0" width="3" height="3" fill="#CE7ED5" />
<rect x="78" y="0" width="3" height="3" fill="#CE7ED5" />
<rect x="81" y="0" width="3" height="3" fill="#CE7ED5" />
<rect x="84" y="0" width="3" height="3" fill="#CE7ED5" />
<rect x="75" y="3" width="3" height="3" fill="#CE7ED5" />
<rect x="78" y="3" width="3" height="3" fill="#CE7ED5" />
<rect x="81" y="3" width="3" height="3" fill="#CE7ED5" />
<rect x="84" y="3" width="3" height="3" fill="#CE7ED5" />
<rect x="75" y="6" width="3" height="3" fill="#CE7ED5" />
<rect x="78" y="6" width="3" height="3" fill="#CE7ED5" />
<rect x="81" y="6" width="3" height="3" fill="#CE7ED5" />
<rect x="84" y="6" width="3" height="3" fill="#CE7ED5" />
<rect x="75" y="9" width="3" height="3" fill="#CE7ED5" />
<rect x="78" y="9" width="3" height="3" fill="#CE7ED5" />
<rect x="81" y="9" width="3" height="3" fill="#CE7ED5" />
<rect x="84" y="9" width="3" height="3" fill="#CE7ED5" />
<rect x="75" y="12" width="3" height="3" fill="#CE7ED5" />
<rect x="78" y="12" width="3" height="3" fill="#CE7ED5" />
<rect x="81" y="12" width="3" height="3" fill="#CE7ED5" />
<rect x="84" y="12" width="3" height="3" fill="#CE7ED5" />
<rect x="75" y="15" width="3" height="3" fill="#CE7ED5" />
<rect x="78" y="15" width="3" height="3" fill="#CE7ED5" />
<rect x="81" y="15" width="3" height="3" fill="#CE7ED5" />
<rect x="84" y="15" width="3" height="3" fill="#CE7ED5" />
<rect x="75" y="18" width="3" height="3" fill="#CE7ED5" />
<rect x="78" y="18" width="3" height="3" fill="#CE7ED5" />
<rect x="81" y="18" width="3" height="3" fill="#CE7ED5" />
<rect x="84" y="18" width="3" height="3" fill="#CE7ED5" />
<rect x="75" y="21" width="3" height="3" fill="#CE7ED5" />
<rect x="78" y="21" width="3" height="3" fill="#CE7ED5" />
<rect x="81" y="21" width="3" height="3" fill="#CE7ED5" />
<rect x="84" y="21" width="3" height="3" fill="#CE7ED5" />
<rect x="51" y="24" width="3" height="3" fill="#CE7ED5" />
<rect x="54" y="24" width="3" height="3" fill="#CE7ED5" />
<rect x="57" y="24" width="3" height="3" fill="#CE7ED5" />
<rect x="60" y="24" width="3" height="3" fill="#CE7ED5" />
<rect x="63" y="24" width="3" height="3" fill="#CE7ED5" />
<rect x="66" y="24" width="3" height="3" fill="#CE7ED5" />
<rect x="69" y="24" width="3" height="3" fill="#CE7ED5" />
<rect x="72" y="24" width="3" height="3" fill="#CE7ED5" />
<rect x="87" y="24" width="3" height="3" fill="#CE7ED5" />
<rect x="90" y="24" width="3" height="3" fill="#CE7ED5" />
<rect x="93" y="24" width="3" height="3" fill="#CE7ED5" />
<rect x="96" y="24" width="3" height="3" fill="#CE7ED5" />
<rect x="99" y="24" width="3" height="3" fill="#CE7ED5" />
<rect x="102" y="24" width="3" height="3" fill="#CE7ED5" />
<rect x="105" y="24" width="3" height="3" fill="#CE7ED5" />
<rect x="108" y="24" width="3" height="3" fill="#CE7ED5" />
<rect x="51" y="27" width="3" height="3" fill="#CE7ED5" />
<rect x="54" y="27" width="3" height="3" fill="#CE7ED5" />
<rect x="57" y="27" width="3" height="3" fill="#CE7ED5" />
<rect x="60" y="27" width="3" height="3" fill="#CE7ED5" />
<rect x="63" y="27" width="3" height="3" fill="#CE7ED5" />
<rect x="66" y="27" width="3" height="3" fill="#CE7ED5" />
<rect x="69" y="27" width="3" height="3" fill="#CE7ED5" />
<rect x="72" y="27" width="3" height="3" fill="#CE7ED5" />
<rect x="87" y="27" width="3" height="3" fill="#CE7ED5" />
<rect x="90" y="27" width="3" height="3" fill="#CE7ED5" />
<rect x="93" y="27" width="3" height="3" fill="#CE7ED5" />
<rect x="96" y="27" width="3" height="3" fill="#CE7ED5" />
<rect x="99" y="27" width="3" height="3" fill="#CE7ED5" />
<rect x="102" y="27" width="3" height="3" fill="#CE7ED5" />
<rect x="105" y="27" width="3" height="3" fill="#CE7ED5" />
<rect x="108" y="27" width="3" height="3" fill="#CE7ED5" />
<rect x="51" y="30" width="3" height="3" fill="#CE7ED5" />
<rect x="54" y="30" width="3" height="3" fill="#CE7ED5" />
<rect x="57" y="30" width="3" height="3" fill="#CE7ED5" />
<rect x="60" y="30" width="3" height="3" fill="#CE7ED5" />
<rect x="63" y="30" width="3" height="3" fill="#CE7ED5" />
<rect x="66" y="30" width="3" height="3" fill="#CE7ED5" />
<rect x="69" y="30" width="3" height="3" fill="#CE7ED5" />
<rect x="72" y="30" width="3" height="3" fill="#CE7ED5" />
<rect x="87" y="30" width="3" height="3" fill="#CE7ED5" />
<rect x="90" y="30" width="3" height="3" fill="#CE7ED5" />
<rect x="93" y="30" width="3" height="3" fill="#CE7ED5" />
<rect x="96" y="30" width="3" height="3" fill="#CE7ED5" />
<rect x="99" y="30" width="3" height="3" fill="#CE7ED5" />
<rect x="102" y="30" width="3" height="3" fill="#CE7ED5" />
<rect x="105" y="30" width="3" height="3" fill="#CE7ED5" />
<rect x="108" y="30" width="3" height="3" fill="#CE7ED5" />
<rect x="51" y="33" width="3" height="3" fill="#CE7ED5" />
<rect x="54" y="33" width="3" height="3" fill="#CE7ED5" />
<rect x="57" y="33" width="3" height="3" fill="#CE7ED5" />
<rect x="60" y="33" width="3" height="3" fill="#CE7ED5" />
<rect x="63" y="33" width="3" height="3" fill="#CE7ED5" />
<rect x="66" y="33" width="3" height="3" fill="#CE7ED5" />
<rect x="69" y="33" width="3" height="3" fill="#CE7ED5" />
<rect x="72" y="33" width="3" height="3" fill="#CE7ED5" />
<rect x="87" y="33" width="3" height="3" fill="#CE7ED5" />
<rect x="90" y="33" width="3" height="3" fill="#CE7ED5" />
<rect x="93" y="33" width="3" height="3" fill="#CE7ED5" />
<rect x="96" y="33" width="3" height="3" fill="#CE7ED5" />
<rect x="99" y="33" width="3" height="3" fill="#CE7ED5" />
<rect x="102" y="33" width="3" height="3" fill="#CE7ED5" />
<rect x="105" y="33" width="3" height="3" fill="#CE7ED5" />
<rect x="108" y="33" width="3" height="3" fill="#CE7ED5" />
<rect x="75" y="36" width="3" height="3" fill="#CE7ED5" />
<rect x="78" y="36" width="3" height="3" fill="#CE7ED5" />
<rect x="81" y="36" width="3" height="3" fill="#CE7ED5" />
<rect x="84" y="36" width="3" height="3" fill="#CE7ED5" />
<rect x="75" y="39" width="3" height="3" fill="#CE7ED5" />
<rect x="78" y="39" width="3" height="3" fill="#CE7ED5" />
<rect x="81" y="39" width="3" height="3" fill="#CE7ED5" />
<rect x="84" y="39" width="3" height="3" fill="#CE7ED5" />
<rect x="75" y="42" width="3" height="3" fill="#CE7ED5" />
<rect x="78" y="42" width="3" height="3" fill="#CE7ED5" />
<rect x="81" y="42" width="3" height="3" fill="#CE7ED5" />
<rect x="84" y="42" width="3" height="3" fill="#CE7ED5" />
<rect x="75" y="45" width="3" height="3" fill="#CE7ED5" />
<rect x="78" y="45" width="3" height="3" fill="#CE7ED5" />
<rect x="81" y="45" width="3" height="3" fill="#CE7ED5" />
<rect x="84" y="45" width="3" height="3" fill="#CE7ED5" />
<rect x="75" y="48" width="3" height="3" fill="#CE7ED5" />
<rect x="78" y="48" width="3" height="3" fill="#CE7ED5" />
<rect x="81" y="48" width="3" height="3" fill="#CE7ED5" />
<rect x="84" y="48" width="3" height="3" fill="#CE7ED5" />
<rect x="75" y="51" width="3" height="3" fill="#CE7ED5" />
<rect x="78" y="51" width="3" height="3" fill="#CE7ED5" />
<rect x="81" y="51" width="3" height="3" fill="#CE7ED5" />
<rect x="84" y="51" width="3" height="3" fill="#CE7ED5" />
<rect x="75" y="54" width="3" height="3" fill="#CE7ED5" />
<rect x="78" y="54" width="3" height="3" fill="#CE7ED5" />
<rect x="81" y="54" width="3" height="3" fill="#CE7ED5" />
<rect x="84" y="54" width="3" height="3" fill="#CE7ED5" />
<rect x="15" y="57" width="3" height="3" fill="#CE7ED5" />
<rect x="18" y="57" width="3" height="3" fill="#CE7ED5" />
<rect x="21" y="57" width="3" height="3" fill="#CE7ED5" />
<rect x="15" y="60" width="3" height="3" fill="#CE7ED5" />
<rect x="18" y="60" width="3" height="3" fill="#CE7ED5" />
<rect x="21" y="60" width="3" height="3" fill="#CE7ED5" />
<rect x="15" y="63" width="3" height="3" fill="#CE7ED5" />
<rect x="18" y="63" width="3" height="3" fill="#CE7ED5" />
<rect x="21" y="63" width="3" height="3" fill="#CE7ED5" />
<rect x="15" y="66" width="3" height="3" fill="#CE7ED5" />
<rect x="18" y="66" width="3" height="3" fill="#CE7ED5" />
<rect x="21" y="66" width="3" height="3" fill="#CE7ED5" />
<rect x="15" y="69" width="3" height="3" fill="#CE7ED5" />
<rect x="18" y="69" width="3" height="3" fill="#CE7ED5" />
<rect x="21" y="69" width="3" height="3" fill="#CE7ED5" />
<rect x="0" y="72" width="3" height="3" fill="#CE7ED5" />
<rect x="3" y="72" width="3" height="3" fill="#CE7ED5" />
<rect x="6" y="72" width="3" height="3" fill="#CE7ED5" />
<rect x="9" y="72" width="3" height="3" fill="#CE7ED5" />
<rect x="12" y="72" width="3" height="3" fill="#CE7ED5" />
<rect x="24" y="72" width="3" height="3" fill="#CE7ED5" />
<rect x="27" y="72" width="3" height="3" fill="#CE7ED5" />
<rect x="30" y="72" width="3" height="3" fill="#CE7ED5" />
<rect x="33" y="72" width="3" height="3" fill="#CE7ED5" />
<rect x="36" y="72" width="3" height="3" fill="#CE7ED5" />
<rect x="0" y="75" width="3" height="3" fill="#CE7ED5" />
<rect x="3" y="75" width="3" height="3" fill="#CE7ED5" />
<rect x="6" y="75" width="3" height="3" fill="#CE7ED5" />
<rect x="9" y="75" width="3" height="3" fill="#CE7ED5" />
<rect x="12" y="75" width="3" height="3" fill="#CE7ED5" />
<rect x="24" y="75" width="3" height="3" fill="#CE7ED5" />
<rect x="27" y="75" width="3" height="3" fill="#CE7ED5" />
<rect x="30" y="75" width="3" height="3" fill="#CE7ED5" />
<rect x="33" y="75" width="3" height="3" fill="#CE7ED5" />
<rect x="36" y="75" width="3" height="3" fill="#CE7ED5" />
<rect x="0" y="78" width="3" height="3" fill="#CE7ED5" />
<rect x="3" y="78" width="3" height="3" fill="#CE7ED5" />
<rect x="6" y="78" width="3" height="3" fill="#CE7ED5" />
<rect x="9" y="78" width="3" height="3" fill="#CE7ED5" />
<rect x="12" y="78" width="3" height="3" fill="#CE7ED5" />
<rect x="24" y="78" width="3" height="3" fill="#CE7ED5" />
<rect x="27" y="78" width="3" height="3" fill="#CE7ED5" />
<rect x="30" y="78" width="3" height="3" fill="#CE7ED5" />
<rect x="33" y="78" width="3" height="3" fill="#CE7ED5" />
<rect x="36" y="78" width="3" height="3" fill="#CE7ED5" />
<rect x="15" y="81" width="3" height="3" fill="#CE7ED5" />
<rect x="18" y="81" width="3" height="3" fill="#CE7ED5" />
<rect x="21" y="81" width="3" height="3" fill="#CE7ED5" />
<rect x="69" y="81" width="3" height="3" fill="#CE7ED5" />
<rect x="72" y="81" width="3" height="3" fill="#CE7ED5" />
<rect x="15" y="84" width="3" height="3" fill="#CE7ED5" />
<rect x="18" y="84" width="3" height="3" fill="#CE7ED5" />
<rect x="21" y="84" width="3" height="3" fill="#CE7ED5" />
<rect x="69" y="84" width="3" height="3" fill="#CE7ED5" />
<rect x="72" y="84" width="3" height="3" fill="#CE7ED5" />
<rect x="15" y="87" width="3" height="3" fill="#CE7ED5" />
<rect x="18" y="87" width="3" height="3" fill="#CE7ED5" />
<rect x="21" y="87" width="3" height="3" fill="#CE7ED5" />
<rect x="69" y="87" width="3" height="3" fill="#CE7ED5" />
<rect x="72" y="87" width="3" height="3" fill="#CE7ED5" />
<rect x="15" y="90" width="3" height="3" fill="#CE7ED5" />
<rect x="18" y="90" width="3" height="3" fill="#CE7ED5" />
<rect x="21" y="90" width="3" height="3" fill="#CE7ED5" />
<rect x="69" y="90" width="3" height="3" fill="#CE7ED5" />
<rect x="72" y="90" width="3" height="3" fill="#CE7ED5" />
<rect x="15" y="93" width="3" height="3" fill="#CE7ED5" />
<rect x="18" y="93" width="3" height="3" fill="#CE7ED5" />
<rect x="21" y="93" width="3" height="3" fill="#CE7ED5" />
<rect x="57" y="93" width="3" height="3" fill="#CE7ED5" />
<rect x="60" y="93" width="3" height="3" fill="#CE7ED5" />
<rect x="63" y="93" width="3" height="3" fill="#CE7ED5" />
<rect x="66" y="93" width="3" height="3" fill="#CE7ED5" />
<rect x="75" y="93" width="3" height="3" fill="#CE7ED5" />
<rect x="78" y="93" width="3" height="3" fill="#CE7ED5" />
<rect x="81" y="93" width="3" height="3" fill="#CE7ED5" />
<rect x="84" y="93" width="3" height="3" fill="#CE7ED5" />
<rect x="57" y="96" width="3" height="3" fill="#CE7ED5" />
<rect x="60" y="96" width="3" height="3" fill="#CE7ED5" />
<rect x="63" y="96" width="3" height="3" fill="#CE7ED5" />
<rect x="66" y="96" width="3" height="3" fill="#CE7ED5" />
<rect x="75" y="96" width="3" height="3" fill="#CE7ED5" />
<rect x="78" y="96" width="3" height="3" fill="#CE7ED5" />
<rect x="81" y="96" width="3" height="3" fill="#CE7ED5" />
<rect x="84" y="96" width="3" height="3" fill="#CE7ED5" />
<rect x="69" y="99" width="3" height="3" fill="#CE7ED5" />
<rect x="72" y="99" width="3" height="3" fill="#CE7ED5" />
<rect x="69" y="102" width="3" height="3" fill="#CE7ED5" />
<rect x="72" y="102" width="3" height="3" fill="#CE7ED5" />
<rect x="69" y="105" width="3" height="3" fill="#CE7ED5" />
<rect x="72" y="105" width="3" height="3" fill="#CE7ED5" />
<rect x="69" y="108" width="3" height="3" fill="#CE7ED5" />
<rect x="72" y="108" width="3" height="3" fill="#CE7ED5" />
</svg>