<?xml version="1.0" encoding="UTF-8" ?>
<svg version="1.1" width="70" height="50" xmlns="http://www.w3.org/2000/svg" shape-rendering="crispEdges">
<rect x="40" y="0" width="5" height="5" fill="#B799DF" />
<rect x="45" y="0" width="5" height="5" fill="#B799DF" />
<rect x="35" y="5" width="5" height="5" fill="#B799DF" />
<rect x="40" y="5" width="5" height="5" fill="#D4BCF5" />
<rect x="45" y="5" width="5" height="5" fill="#D4BCF5" />
<rect x="50" y="5" width="5" height="5" fill="#B799DF" />
<rect x="5" y="10" width="5" height="5" fill="#B799DF" />
<rect x="10" y="10" width="5" height="5" fill="#B799DF" />
<rect x="15" y="10" width="5" height="5" fill="#B799DF" />
<rect x="20" y="10" width="5" height="5" fill="#B799DF" />
<rect x="25" y="10" width="5" height="5" fill="#B799DF" />
<rect x="30" y="10" width="5" height="5" fill="#B799DF" />
<rect x="35" y="10" width="5" height="5" fill="#B799DF" />
<rect x="40" y="10" width="5" height="5" fill="#D4BCF5" />
<rect x="45" y="10" width="5" height="5" fill="#D4BCF5" />
<rect x="50" y="10" width="5" height="5" fill="#D4BCF5" />
<rect x="55" y="10" width="5" height="5" fill="#B799DF" />
<rect x="0" y="15" width="5" height="5" fill="#B799DF" />
<rect x="5" y="15" width="5" height="5" fill="#D4BCF5" />
<rect x="10" y="15" width="5" height="5" fill="#D4BCF5" />
<rect x="15" y="15" width="5" height="5" fill="#D4BCF5" />
<rect x="20" y="15" width="5" height="5" fill="#D4BCF5" />
<rect x="25" y="15" width="5" height="5" fill="#D4BCF5" />
<rect x="30" y="15" width="5" height="5" fill="#D4BCF5" />
<rect x="35" y="15" width="5" height="5" fill="#D4BCF5" />
<rect x="40" y="15" width="5" height="5" fill="#D4BCF5" />
<rect x="45" y="15" width="5" height="5" fill="#D4BCF5" />
<rect x="50" y="15" width="5" height="5" fill="#D4BCF5" />
<rect x="55" y="15" width="5" height="5" fill="#D4BCF5" />
<rect x="60" y="15" width="5" height="5" fill="#B799DF" />
<rect x="0" y="20" width="5" height="5" fill="#B799DF" />
<rect x="5" y="20" width="5" height="5" fill="#D4BCF5" />
<rect x="10" y="20" width="5" height="5" fill="#D4BCF5" />
<rect x="15" y="20" width="5" height="5" fill="#D4BCF5" />
<rect x="20" y="20" width="5" height="5" fill="#D4BCF5" />
<rect x="25" y="20" width="5" height="5" fill="#D4BCF5" />
<rect x="30" y="20" width="5" height="5" fill="#D4BCF5" />
<rect x="35" y="20" width="5" height="5" fill="#D4BCF5" />
<rect x="40" y="20" width="5" height="5" fill="#D4BCF5" />
<rect x="45" y="20" width="5" height="5" fill="#D4BCF5" />
<rect x="50" y="20" width="5" height="5" fill="#D4BCF5" />
<rect x="55" y="20" width="5" height="5" fill="#D4BCF5" />
<rect x="60" y="20" width="5" height="5" fill="#D4BCF5" />
<rect x="65" y="20" width="5" height="5" fill="#B799DF" />
<rect x="0" y="25" width="5" height="5" fill="#B799DF" />
<rect x="5" y="25" width="5" height="5" fill="#D4BCF5" />
<rect x="10" y="25" width="5" height="5" fill="#D4BCF5" />
<rect x="15" y="25" width="5" height="5" fill="#D4BCF5" />
<rect x="20" y="25" width="5" height="5" fill="#D4BCF5" />
<rect x="25" y="25" width="5" height="5" fill="#D4BCF5" />
<rect x="30" y="25" width="5" height="5" fill="#D4BCF5" />
<rect x="35" y="25" width="5" height="5" fill="#D4BCF5" />
<rect x="40" y="25" width="5" height="5" fill="#D4BCF5" />
<rect x="45" y="25" width="5" height="5" fill="#D4BCF5" />
<rect x="50" y="25" width="5" height="5" fill="#D4BCF5" />
<rect x="55" y="25" width="5" height="5" fill="#D4BCF5" />
<rect x="60" y="25" width="5" height="5" fill="#D4BCF5" />
<rect x="65" y="25" width="5" height="5" fill="#B799DF" />
<rect x="0" y="30" width="5" height="5" fill="#B799DF" />
<rect x="5" y="30" width="5" height="5" fill="#D4BCF5" />
<rect x="10" y="30" width="5" height="5" fill="#D4BCF5" />
<rect x="15" y="30" width="5" height="5" fill="#D4BCF5" />
<rect x="20" y="30" width="5" height="5" fill="#D4BCF5" />
<rect x="25" y="30" width="5" height="5" fill="#D4BCF5" />
<rect x="30" y="30" width="5" height="5" fill="#D4BCF5" />
<rect x="35" y="30" width="5" height="5" fill="#D4BCF5" />
<rect x="40" y="30" width="5" height="5" fill="#D4BCF5" />
<rect x="45" y="30" width="5" height="5" fill="#D4BCF5" />
<rect x="50" y="30" width="5" height="5" fill="#D4BCF5" />
<rect x="55" y="30" width="5" height="5" fill="#D4BCF5" />
<rect x="60" y="30" width="5" height="5" fill="#B799DF" />
<rect x="5" y="35" width="5" height="5" fill="#B799DF" />
<rect x="10" y="35" width="5" height="5" fill="#B799DF" />
<rect x="15" y="35" width="5" height="5" fill="#B799DF" />
<rect x="20" y="35" width="5" height="5" fill="#B799DF" />
<rect x="25" y="35" width="5" height="5" fill="#B799DF" />
<rect x="30" y="35" width="5" height="5" fill="#B799DF" />
<rect x="35" y="35" width="5" height="5" fill="#B799DF" />
<rect x="40" y="35" width="5" height="5" fill="#D4BCF5" />
<rect x="45" y="35" width="5" height="5" fill="#D4BCF5" />
<rect x="50" y="35" width="5" height="5" fill="#D4BCF5" />
<rect x="55" y="35" width="5" height="5" fill="#B799DF" />
<rect x="35" y="40" width="5" height="5" fill="#B799DF" />
<rect x="40" y="40" width="5" height="5" fill="#D4BCF5" />
<rect x="45" y="40" width="5" height="5" fill="#D4BCF5" />
<rect x="50" y="40" width="5" height="5" fill="#B799DF" />
<rect x="40" y="45" width="5" height="5" fill="#B799DF" />
<rect x="45" y="45" width="5" height="5" fill="#B799DF" />
</svg>