<?xml version="1.0" encoding="UTF-8" ?>
<svg version="1.1" width="1" height="89" xmlns="http://www.w3.org/2000/svg" shape-rendering="crispEdges">
<rect x="0" y="0" width="1" height="1" fill="#B799DF" />
<rect x="0" y="1" width="1" height="1" fill="#B799DF" />
<rect x="0" y="2" width="1" height="1" fill="#EEE2FF" />
<rect x="0" y="3" width="1" height="1" fill="#EEE2FF" />
<rect x="0" y="4" width="1" height="1" fill="#EEE2FF" />
<rect x="0" y="5" width="1" height="1" fill="#EEE2FF" />
<rect x="0" y="6" width="1" height="1" fill="#EEE2FF" />
<rect x="0" y="7" width="1" height="1" fill="#EEE2FF" />
<rect x="0" y="8" width="1" height="1" fill="#EEE2FF" />
<rect x="0" y="9" width="1" height="1" fill="#EEE2FF" />
<rect x="0" y="10" width="1" height="1" fill="#EEE2FF" />
<rect x="0" y="11" width="1" height="1" fill="#EEE2FF" />
<rect x="0" y="12" width="1" height="1" fill="#EEE2FF" />
<rect x="0" y="13" width="1" height="1" fill="#EEE2FF" />
<rect x="0" y="14" width="1" height="1" fill="#EEE2FF" />
<rect x="0" y="15" width="1" height="1" fill="#EEE2FF" />
<rect x="0" y="16" width="1" height="1" fill="#EEE2FF" />
<rect x="0" y="17" width="1" height="1" fill="#EEE2FF" />
<rect x="0" y="18" width="1" height="1" fill="#EEE2FF" />
<rect x="0" y="19" width="1" height="1" fill="#EEE2FF" />
<rect x="0" y="20" width="1" height="1" fill="#EEE2FF" />
<rect x="0" y="21" width="1" height="1" fill="#EEE2FF" />
<rect x="0" y="22" width="1" height="1" fill="#EEE2FF" />
<rect x="0" y="23" width="1" height="1" fill="#EEE2FF" />
<rect x="0" y="24" width="1" height="1" fill="#EEE2FF" />
<rect x="0" y="25" width="1" height="1" fill="#EEE2FF" />
<rect x="0" y="26" width="1" height="1" fill="#EEE2FF" />
<rect x="0" y="27" width="1" height="1" fill="#EEE2FF" />
<rect x="0" y="28" width="1" height="1" fill="#EEE2FF" />
<rect x="0" y="29" width="1" height="1" fill="#EEE2FF" />
<rect x="0" y="30" width="1" height="1" fill="#EEE2FF" />
<rect x="0" y="31" width="1" height="1" fill="#EEE2FF" />
<rect x="0" y="32" width="1" height="1" fill="#EEE2FF" />
<rect x="0" y="33" width="1" height="1" fill="#EEE2FF" />
<rect x="0" y="34" width="1" height="1" fill="#EEE2FF" />
<rect x="0" y="35" width="1" height="1" fill="#EEE2FF" />
<rect x="0" y="36" width="1" height="1" fill="#EEE2FF" />
<rect x="0" y="37" width="1" height="1" fill="#EEE2FF" />
<rect x="0" y="38" width="1" height="1" fill="#EEE2FF" />
<rect x="0" y="39" width="1" height="1" fill="#EEE2FF" />
<rect x="0" y="40" width="1" height="1" fill="#EEE2FF" />
<rect x="0" y="41" width="1" height="1" fill="#EEE2FF" />
<rect x="0" y="42" width="1" height="1" fill="#EEE2FF" />
<rect x="0" y="43" width="1" height="1" fill="#EEE2FF" />
<rect x="0" y="44" width="1" height="1" fill="#EEE2FF" />
<rect x="0" y="45" width="1" height="1" fill="#EEE2FF" />
<rect x="0" y="46" width="1" height="1" fill="#EEE2FF" />
<rect x="0" y="47" width="1" height="1" fill="#EEE2FF" />
<rect x="0" y="48" width="1" height="1" fill="#EEE2FF" />
<rect x="0" y="49" width="1" height="1" fill="#EEE2FF" />
<rect x="0" y="50" width="1" height="1" fill="#EEE2FF" />
<rect x="0" y="51" width="1" height="1" fill="#EEE2FF" />
<rect x="0" y="52" width="1" height="1" fill="#EEE2FF" />
<rect x="0" y="53" width="1" height="1" fill="#EEE2FF" />
<rect x="0" y="54" width="1" height="1" fill="#EEE2FF" />
<rect x="0" y="55" width="1" height="1" fill="#EEE2FF" />
<rect x="0" y="56" width="1" height="1" fill="#EEE2FF" />
<rect x="0" y="57" width="1" height="1" fill="#EEE2FF" />
<rect x="0" y="58" width="1" height="1" fill="#EEE2FF" />
<rect x="0" y="59" width="1" height="1" fill="#EEE2FF" />
<rect x="0" y="60" width="1" height="1" fill="#EEE2FF" />
<rect x="0" y="61" width="1" height="1" fill="#EEE2FF" />
<rect x="0" y="62" width="1" height="1" fill="#EEE2FF" />
<rect x="0" y="63" width="1" height="1" fill="#EEE2FF" />
<rect x="0" y="64" width="1" height="1" fill="#EEE2FF" />
<rect x="0" y="65" width="1" height="1" fill="#EEE2FF" />
<rect x="0" y="66" width="1" height="1" fill="#EEE2FF" />
<rect x="0" y="67" width="1" height="1" fill="#EEE2FF" />
<rect x="0" y="68" width="1" height="1" fill="#EEE2FF" />
<rect x="0" y="69" width="1" height="1" fill="#EEE2FF" />
<rect x="0" y="70" width="1" height="1" fill="#EEE2FF" />
<rect x="0" y="71" width="1" height="1" fill="#EEE2FF" />
<rect x="0" y="72" width="1" height="1" fill="#EEE2FF" />
<rect x="0" y="73" width="1" height="1" fill="#EEE2FF" />
<rect x="0" y="74" width="1" height="1" fill="#EEE2FF" />
<rect x="0" y="75" width="1" height="1" fill="#EEE2FF" />
<rect x="0" y="76" width="1" height="1" fill="#EEE2FF" />
<rect x="0" y="77" width="1" height="1" fill="#EEE2FF" />
<rect x="0" y="78" width="1" height="1" fill="#EEE2FF" />
<rect x="0" y="79" width="1" height="1" fill="#EEE2FF" />
<rect x="0" y="80" width="1" height="1" fill="#EEE2FF" />
<rect x="0" y="81" width="1" height="1" fill="#EEE2FF" />
<rect x="0" y="82" width="1" height="1" fill="#EEE2FF" />
<rect x="0" y="83" width="1" height="1" fill="#EEE2FF" />
<rect x="0" y="84" width="1" height="1" fill="#EEE2FF" />
<rect x="0" y="85" width="1" height="1" fill="#EEE2FF" />
<rect x="0" y="86" width="1" height="1" fill="#D4BCF5" />
<rect x="0" y="87" width="1" height="1" fill="#B799DF" />
<rect x="0" y="88" width="1" height="1" fill="#B799DF" />
</svg>