<?xml version="1.0" encoding="UTF-8" ?>
<svg version="1.1" width="125" height="125" xmlns="http://www.w3.org/2000/svg" shape-rendering="crispEdges">
<rect x="85" y="0" width="5" height="5" fill="#CE7ED5" />
<rect x="90" y="0" width="5" height="5" fill="#CE7ED5" />
<rect x="95" y="0" width="5" height="5" fill="#CE7ED5" />
<rect x="85" y="5" width="5" height="5" fill="#CE7ED5" />
<rect x="90" y="5" width="5" height="5" fill="#CE7ED5" />
<rect x="95" y="5" width="5" height="5" fill="#CE7ED5" />
<rect x="85" y="10" width="5" height="5" fill="#CE7ED5" />
<rect x="90" y="10" width="5" height="5" fill="#CE7ED5" />
<rect x="95" y="10" width="5" height="5" fill="#CE7ED5" />
<rect x="85" y="15" width="5" height="5" fill="#CE7ED5" />
<rect x="90" y="15" width="5" height="5" fill="#CE7ED5" />
<rect x="95" y="15" width="5" height="5" fill="#CE7ED5" />
<rect x="85" y="20" width="5" height="5" fill="#CE7ED5" />
<rect x="90" y="20" width="5" height="5" fill="#CE7ED5" />
<rect x="95" y="20" width="5" height="5" fill="#CE7ED5" />
<rect x="60" y="25" width="5" height="5" fill="#CE7ED5" />
<rect x="65" y="25" width="5" height="5" fill="#CE7ED5" />
<rect x="70" y="25" width="5" height="5" fill="#CE7ED5" />
<rect x="75" y="25" width="5" height="5" fill="#CE7ED5" />
<rect x="80" y="25" width="5" height="5" fill="#CE7ED5" />
<rect x="100" y="25" width="5" height="5" fill="#CE7ED5" />
<rect x="105" y="25" width="5" height="5" fill="#CE7ED5" />
<rect x="110" y="25" width="5" height="5" fill="#CE7ED5" />
<rect x="115" y="25" width="5" height="5" fill="#CE7ED5" />
<rect x="120" y="25" width="5" height="5" fill="#CE7ED5" />
<rect x="60" y="30" width="5" height="5" fill="#CE7ED5" />
<rect x="65" y="30" width="5" height="5" fill="#CE7ED5" />
<rect x="70" y="30" width="5" height="5" fill="#CE7ED5" />
<rect x="75" y="30" width="5" height="5" fill="#CE7ED5" />
<rect x="80" y="30" width="5" height="5" fill="#CE7ED5" />
<rect x="100" y="30" width="5" height="5" fill="#CE7ED5" />
<rect x="105" y="30" width="5" height="5" fill="#CE7ED5" />
<rect x="110" y="30" width="5" height="5" fill="#CE7ED5" />
<rect x="115" y="30" width="5" height="5" fill="#CE7ED5" />
<rect x="120" y="30" width="5" height="5" fill="#CE7ED5" />
<rect x="60" y="35" width="5" height="5" fill="#CE7ED5" />
<rect x="65" y="35" width="5" height="5" fill="#CE7ED5" />
<rect x="70" y="35" width="5" height="5" fill="#CE7ED5" />
<rect x="75" y="35" width="5" height="5" fill="#CE7ED5" />
<rect x="80" y="35" width="5" height="5" fill="#CE7ED5" />
<rect x="100" y="35" width="5" height="5" fill="#CE7ED5" />
<rect x="105" y="35" width="5" height="5" fill="#CE7ED5" />
<rect x="110" y="35" width="5" height="5" fill="#CE7ED5" />
<rect x="115" y="35" width="5" height="5" fill="#CE7ED5" />
<rect x="120" y="35" width="5" height="5" fill="#CE7ED5" />
<rect x="85" y="40" width="5" height="5" fill="#CE7ED5" />
<rect x="90" y="40" width="5" height="5" fill="#CE7ED5" />
<rect x="95" y="40" width="5" height="5" fill="#CE7ED5" />
<rect x="85" y="45" width="5" height="5" fill="#CE7ED5" />
<rect x="90" y="45" width="5" height="5" fill="#CE7ED5" />
<rect x="95" y="45" width="5" height="5" fill="#CE7ED5" />
<rect x="85" y="50" width="5" height="5" fill="#CE7ED5" />
<rect x="90" y="50" width="5" height="5" fill="#CE7ED5" />
<rect x="95" y="50" width="5" height="5" fill="#CE7ED5" />
<rect x="20" y="55" width="5" height="5" fill="#CE7ED5" />
<rect x="25" y="55" width="5" height="5" fill="#CE7ED5" />
<rect x="85" y="55" width="5" height="5" fill="#CE7ED5" />
<rect x="90" y="55" width="5" height="5" fill="#CE7ED5" />
<rect x="95" y="55" width="5" height="5" fill="#CE7ED5" />
<rect x="20" y="60" width="5" height="5" fill="#CE7ED5" />
<rect x="25" y="60" width="5" height="5" fill="#CE7ED5" />
<rect x="85" y="60" width="5" height="5" fill="#CE7ED5" />
<rect x="90" y="60" width="5" height="5" fill="#CE7ED5" />
<rect x="95" y="60" width="5" height="5" fill="#CE7ED5" />
<rect x="20" y="65" width="5" height="5" fill="#CE7ED5" />
<rect x="25" y="65" width="5" height="5" fill="#CE7ED5" />
<rect x="20" y="70" width="5" height="5" fill="#CE7ED5" />
<rect x="25" y="70" width="5" height="5" fill="#CE7ED5" />
<rect x="0" y="75" width="5" height="5" fill="#CE7ED5" />
<rect x="5" y="75" width="5" height="5" fill="#CE7ED5" />
<rect x="10" y="75" width="5" height="5" fill="#CE7ED5" />
<rect x="15" y="75" width="5" height="5" fill="#CE7ED5" />
<rect x="30" y="75" width="5" height="5" fill="#CE7ED5" />
<rect x="35" y="75" width="5" height="5" fill="#CE7ED5" />
<rect x="40" y="75" width="5" height="5" fill="#CE7ED5" />
<rect x="45" y="75" width="5" height="5" fill="#CE7ED5" />
<rect x="0" y="80" width="5" height="5" fill="#CE7ED5" />
<rect x="5" y="80" width="5" height="5" fill="#CE7ED5" />
<rect x="10" y="80" width="5" height="5" fill="#CE7ED5" />
<rect x="15" y="80" width="5" height="5" fill="#CE7ED5" />
<rect x="30" y="80" width="5" height="5" fill="#CE7ED5" />
<rect x="35" y="80" width="5" height="5" fill="#CE7ED5" />
<rect x="40" y="80" width="5" height="5" fill="#CE7ED5" />
<rect x="45" y="80" width="5" height="5" fill="#CE7ED5" />
<rect x="20" y="85" width="5" height="5" fill="#CE7ED5" />
<rect x="25" y="85" width="5" height="5" fill="#CE7ED5" />
<rect x="20" y="90" width="5" height="5" fill="#CE7ED5" />
<rect x="25" y="90" width="5" height="5" fill="#CE7ED5" />
<rect x="80" y="90" width="5" height="5" fill="#CE7ED5" />
<rect x="20" y="95" width="5" height="5" fill="#CE7ED5" />
<rect x="25" y="95" width="5" height="5" fill="#CE7ED5" />
<rect x="80" y="95" width="5" height="5" fill="#CE7ED5" />
<rect x="20" y="100" width="5" height="5" fill="#CE7ED5" />
<rect x="25" y="100" width="5" height="5" fill="#CE7ED5" />
<rect x="80" y="100" width="5" height="5" fill="#CE7ED5" />
<rect x="65" y="105" width="5" height="5" fill="#CE7ED5" />
<rect x="70" y="105" width="5" height="5" fill="#CE7ED5" />
<rect x="75" y="105" width="5" height="5" fill="#CE7ED5" />
<rect x="85" y="105" width="5" height="5" fill="#CE7ED5" />
<rect x="90" y="105" width="5" height="5" fill="#CE7ED5" />
<rect x="95" y="105" width="5" height="5" fill="#CE7ED5" />
<rect x="80" y="110" width="5" height="5" fill="#CE7ED5" />
<rect x="80" y="115" width="5" height="5" fill="#CE7ED5" />
<rect x="80" y="120" width="5" height="5" fill="#CE7ED5" />
</svg>