<?xml version="1.0" encoding="UTF-8" ?>
<svg version="1.1" width="125" height="125" xmlns="http://www.w3.org/2000/svg" shape-rendering="crispEdges">
<rect x="25" y="0" width="5" height="5" fill="#CE7ED5" />
<rect x="30" y="0" width="5" height="5" fill="#CE7ED5" />
<rect x="35" y="0" width="5" height="5" fill="#CE7ED5" />
<rect x="25" y="5" width="5" height="5" fill="#CE7ED5" />
<rect x="30" y="5" width="5" height="5" fill="#CE7ED5" />
<rect x="35" y="5" width="5" height="5" fill="#CE7ED5" />
<rect x="25" y="10" width="5" height="5" fill="#CE7ED5" />
<rect x="30" y="10" width="5" height="5" fill="#CE7ED5" />
<rect x="35" y="10" width="5" height="5" fill="#CE7ED5" />
<rect x="25" y="15" width="5" height="5" fill="#CE7ED5" />
<rect x="30" y="15" width="5" height="5" fill="#CE7ED5" />
<rect x="35" y="15" width="5" height="5" fill="#CE7ED5" />
<rect x="25" y="20" width="5" height="5" fill="#CE7ED5" />
<rect x="30" y="20" width="5" height="5" fill="#CE7ED5" />
<rect x="35" y="20" width="5" height="5" fill="#CE7ED5" />
<rect x="0" y="25" width="5" height="5" fill="#CE7ED5" />
<rect x="5" y="25" width="5" height="5" fill="#CE7ED5" />
<rect x="10" y="25" width="5" height="5" fill="#CE7ED5" />
<rect x="15" y="25" width="5" height="5" fill="#CE7ED5" />
<rect x="20" y="25" width="5" height="5" fill="#CE7ED5" />
<rect x="40" y="25" width="5" height="5" fill="#CE7ED5" />
<rect x="45" y="25" width="5" height="5" fill="#CE7ED5" />
<rect x="50" y="25" width="5" height="5" fill="#CE7ED5" />
<rect x="55" y="25" width="5" height="5" fill="#CE7ED5" />
<rect x="60" y="25" width="5" height="5" fill="#CE7ED5" />
<rect x="0" y="30" width="5" height="5" fill="#CE7ED5" />
<rect x="5" y="30" width="5" height="5" fill="#CE7ED5" />
<rect x="10" y="30" width="5" height="5" fill="#CE7ED5" />
<rect x="15" y="30" width="5" height="5" fill="#CE7ED5" />
<rect x="20" y="30" width="5" height="5" fill="#CE7ED5" />
<rect x="40" y="30" width="5" height="5" fill="#CE7ED5" />
<rect x="45" y="30" width="5" height="5" fill="#CE7ED5" />
<rect x="50" y="30" width="5" height="5" fill="#CE7ED5" />
<rect x="55" y="30" width="5" height="5" fill="#CE7ED5" />
<rect x="60" y="30" width="5" height="5" fill="#CE7ED5" />
<rect x="0" y="35" width="5" height="5" fill="#CE7ED5" />
<rect x="5" y="35" width="5" height="5" fill="#CE7ED5" />
<rect x="10" y="35" width="5" height="5" fill="#CE7ED5" />
<rect x="15" y="35" width="5" height="5" fill="#CE7ED5" />
<rect x="20" y="35" width="5" height="5" fill="#CE7ED5" />
<rect x="40" y="35" width="5" height="5" fill="#CE7ED5" />
<rect x="45" y="35" width="5" height="5" fill="#CE7ED5" />
<rect x="50" y="35" width="5" height="5" fill="#CE7ED5" />
<rect x="55" y="35" width="5" height="5" fill="#CE7ED5" />
<rect x="60" y="35" width="5" height="5" fill="#CE7ED5" />
<rect x="25" y="40" width="5" height="5" fill="#CE7ED5" />
<rect x="30" y="40" width="5" height="5" fill="#CE7ED5" />
<rect x="35" y="40" width="5" height="5" fill="#CE7ED5" />
<rect x="25" y="45" width="5" height="5" fill="#CE7ED5" />
<rect x="30" y="45" width="5" height="5" fill="#CE7ED5" />
<rect x="35" y="45" width="5" height="5" fill="#CE7ED5" />
<rect x="25" y="50" width="5" height="5" fill="#CE7ED5" />
<rect x="30" y="50" width="5" height="5" fill="#CE7ED5" />
<rect x="35" y="50" width="5" height="5" fill="#CE7ED5" />
<rect x="25" y="55" width="5" height="5" fill="#CE7ED5" />
<rect x="30" y="55" width="5" height="5" fill="#CE7ED5" />
<rect x="35" y="55" width="5" height="5" fill="#CE7ED5" />
<rect x="95" y="55" width="5" height="5" fill="#CE7ED5" />
<rect x="100" y="55" width="5" height="5" fill="#CE7ED5" />
<rect x="25" y="60" width="5" height="5" fill="#CE7ED5" />
<rect x="30" y="60" width="5" height="5" fill="#CE7ED5" />
<rect x="35" y="60" width="5" height="5" fill="#CE7ED5" />
<rect x="95" y="60" width="5" height="5" fill="#CE7ED5" />
<rect x="100" y="60" width="5" height="5" fill="#CE7ED5" />
<rect x="95" y="65" width="5" height="5" fill="#CE7ED5" />
<rect x="100" y="65" width="5" height="5" fill="#CE7ED5" />
<rect x="95" y="70" width="5" height="5" fill="#CE7ED5" />
<rect x="100" y="70" width="5" height="5" fill="#CE7ED5" />
<rect x="75" y="75" width="5" height="5" fill="#CE7ED5" />
<rect x="80" y="75" width="5" height="5" fill="#CE7ED5" />
<rect x="85" y="75" width="5" height="5" fill="#CE7ED5" />
<rect x="90" y="75" width="5" height="5" fill="#CE7ED5" />
<rect x="105" y="75" width="5" height="5" fill="#CE7ED5" />
<rect x="110" y="75" width="5" height="5" fill="#CE7ED5" />
<rect x="115" y="75" width="5" height="5" fill="#CE7ED5" />
<rect x="120" y="75" width="5" height="5" fill="#CE7ED5" />
<rect x="75" y="80" width="5" height="5" fill="#CE7ED5" />
<rect x="80" y="80" width="5" height="5" fill="#CE7ED5" />
<rect x="85" y="80" width="5" height="5" fill="#CE7ED5" />
<rect x="90" y="80" width="5" height="5" fill="#CE7ED5" />
<rect x="105" y="80" width="5" height="5" fill="#CE7ED5" />
<rect x="110" y="80" width="5" height="5" fill="#CE7ED5" />
<rect x="115" y="80" width="5" height="5" fill="#CE7ED5" />
<rect x="120" y="80" width="5" height="5" fill="#CE7ED5" />
<rect x="95" y="85" width="5" height="5" fill="#CE7ED5" />
<rect x="100" y="85" width="5" height="5" fill="#CE7ED5" />
<rect x="40" y="90" width="5" height="5" fill="#CE7ED5" />
<rect x="95" y="90" width="5" height="5" fill="#CE7ED5" />
<rect x="100" y="90" width="5" height="5" fill="#CE7ED5" />
<rect x="40" y="95" width="5" height="5" fill="#CE7ED5" />
<rect x="95" y="95" width="5" height="5" fill="#CE7ED5" />
<rect x="100" y="95" width="5" height="5" fill="#CE7ED5" />
<rect x="40" y="100" width="5" height="5" fill="#CE7ED5" />
<rect x="95" y="100" width="5" height="5" fill="#CE7ED5" />
<rect x="100" y="100" width="5" height="5" fill="#CE7ED5" />
<rect x="25" y="105" width="5" height="5" fill="#CE7ED5" />
<rect x="30" y="105" width="5" height="5" fill="#CE7ED5" />
<rect x="35" y="105" width="5" height="5" fill="#CE7ED5" />
<rect x="45" y="105" width="5" height="5" fill="#CE7ED5" />
<rect x="50" y="105" width="5" height="5" fill="#CE7ED5" />
<rect x="55" y="105" width="5" height="5" fill="#CE7ED5" />
<rect x="40" y="110" width="5" height="5" fill="#CE7ED5" />
<rect x="40" y="115" width="5" height="5" fill="#CE7ED5" />
<rect x="40" y="120" width="5" height="5" fill="#CE7ED5" />
</svg>