<?xml version="1.0" encoding="UTF-8" ?>
<svg version="1.1" width="86" height="88" xmlns="http://www.w3.org/2000/svg" shape-rendering="crispEdges">
<rect x="18" y="0" width="2" height="2" fill="#CE7ED5" />
<rect x="20" y="0" width="2" height="2" fill="#CE7ED5" />
<rect x="22" y="0" width="2" height="2" fill="#CE7ED5" />
<rect x="24" y="0" width="2" height="2" fill="#CE7ED5" />
<rect x="26" y="0" width="2" height="2" fill="#CE7ED5" />
<rect x="18" y="2" width="2" height="2" fill="#CE7ED5" />
<rect x="20" y="2" width="2" height="2" fill="#CE7ED5" />
<rect x="22" y="2" width="2" height="2" fill="#CE7ED5" />
<rect x="24" y="2" width="2" height="2" fill="#CE7ED5" />
<rect x="26" y="2" width="2" height="2" fill="#CE7ED5" />
<rect x="18" y="4" width="2" height="2" fill="#CE7ED5" />
<rect x="20" y="4" width="2" height="2" fill="#CE7ED5" />
<rect x="22" y="4" width="2" height="2" fill="#CE7ED5" />
<rect x="24" y="4" width="2" height="2" fill="#CE7ED5" />
<rect x="26" y="4" width="2" height="2" fill="#CE7ED5" />
<rect x="18" y="6" width="2" height="2" fill="#CE7ED5" />
<rect x="20" y="6" width="2" height="2" fill="#CE7ED5" />
<rect x="22" y="6" width="2" height="2" fill="#CE7ED5" />
<rect x="24" y="6" width="2" height="2" fill="#CE7ED5" />
<rect x="26" y="6" width="2" height="2" fill="#CE7ED5" />
<rect x="18" y="8" width="2" height="2" fill="#CE7ED5" />
<rect x="20" y="8" width="2" height="2" fill="#CE7ED5" />
<rect x="22" y="8" width="2" height="2" fill="#CE7ED5" />
<rect x="24" y="8" width="2" height="2" fill="#CE7ED5" />
<rect x="26" y="8" width="2" height="2" fill="#CE7ED5" />
<rect x="18" y="10" width="2" height="2" fill="#CE7ED5" />
<rect x="20" y="10" width="2" height="2" fill="#CE7ED5" />
<rect x="22" y="10" width="2" height="2" fill="#CE7ED5" />
<rect x="24" y="10" width="2" height="2" fill="#CE7ED5" />
<rect x="26" y="10" width="2" height="2" fill="#CE7ED5" />
<rect x="18" y="12" width="2" height="2" fill="#CE7ED5" />
<rect x="20" y="12" width="2" height="2" fill="#CE7ED5" />
<rect x="22" y="12" width="2" height="2" fill="#CE7ED5" />
<rect x="24" y="12" width="2" height="2" fill="#CE7ED5" />
<rect x="26" y="12" width="2" height="2" fill="#CE7ED5" />
<rect x="18" y="14" width="2" height="2" fill="#CE7ED5" />
<rect x="20" y="14" width="2" height="2" fill="#CE7ED5" />
<rect x="22" y="14" width="2" height="2" fill="#CE7ED5" />
<rect x="24" y="14" width="2" height="2" fill="#CE7ED5" />
<rect x="26" y="14" width="2" height="2" fill="#CE7ED5" />
<rect x="18" y="16" width="2" height="2" fill="#CE7ED5" />
<rect x="20" y="16" width="2" height="2" fill="#CE7ED5" />
<rect x="22" y="16" width="2" height="2" fill="#CE7ED5" />
<rect x="24" y="16" width="2" height="2" fill="#CE7ED5" />
<rect x="26" y="16" width="2" height="2" fill="#CE7ED5" />
<rect x="0" y="18" width="2" height="2" fill="#CE7ED5" />
<rect x="2" y="18" width="2" height="2" fill="#CE7ED5" />
<rect x="4" y="18" width="2" height="2" fill="#CE7ED5" />
<rect x="6" y="18" width="2" height="2" fill="#CE7ED5" />
<rect x="8" y="18" width="2" height="2" fill="#CE7ED5" />
<rect x="10" y="18" width="2" height="2" fill="#CE7ED5" />
<rect x="12" y="18" width="2" height="2" fill="#CE7ED5" />
<rect x="14" y="18" width="2" height="2" fill="#CE7ED5" />
<rect x="16" y="18" width="2" height="2" fill="#CE7ED5" />
<rect x="28" y="18" width="2" height="2" fill="#CE7ED5" />
<rect x="30" y="18" width="2" height="2" fill="#CE7ED5" />
<rect x="32" y="18" width="2" height="2" fill="#CE7ED5" />
<rect x="34" y="18" width="2" height="2" fill="#CE7ED5" />
<rect x="36" y="18" width="2" height="2" fill="#CE7ED5" />
<rect x="38" y="18" width="2" height="2" fill="#CE7ED5" />
<rect x="40" y="18" width="2" height="2" fill="#CE7ED5" />
<rect x="42" y="18" width="2" height="2" fill="#CE7ED5" />
<rect x="44" y="18" width="2" height="2" fill="#CE7ED5" />
<rect x="0" y="20" width="2" height="2" fill="#CE7ED5" />
<rect x="2" y="20" width="2" height="2" fill="#CE7ED5" />
<rect x="4" y="20" width="2" height="2" fill="#CE7ED5" />
<rect x="6" y="20" width="2" height="2" fill="#CE7ED5" />
<rect x="8" y="20" width="2" height="2" fill="#CE7ED5" />
<rect x="10" y="20" width="2" height="2" fill="#CE7ED5" />
<rect x="12" y="20" width="2" height="2" fill="#CE7ED5" />
<rect x="14" y="20" width="2" height="2" fill="#CE7ED5" />
<rect x="16" y="20" width="2" height="2" fill="#CE7ED5" />
<rect x="28" y="20" width="2" height="2" fill="#CE7ED5" />
<rect x="30" y="20" width="2" height="2" fill="#CE7ED5" />
<rect x="32" y="20" width="2" height="2" fill="#CE7ED5" />
<rect x="34" y="20" width="2" height="2" fill="#CE7ED5" />
<rect x="36" y="20" width="2" height="2" fill="#CE7ED5" />
<rect x="38" y="20" width="2" height="2" fill="#CE7ED5" />
<rect x="40" y="20" width="2" height="2" fill="#CE7ED5" />
<rect x="42" y="20" width="2" height="2" fill="#CE7ED5" />
<rect x="44" y="20" width="2" height="2" fill="#CE7ED5" />
<rect x="0" y="22" width="2" height="2" fill="#CE7ED5" />
<rect x="2" y="22" width="2" height="2" fill="#CE7ED5" />
<rect x="4" y="22" width="2" height="2" fill="#CE7ED5" />
<rect x="6" y="22" width="2" height="2" fill="#CE7ED5" />
<rect x="8" y="22" width="2" height="2" fill="#CE7ED5" />
<rect x="10" y="22" width="2" height="2" fill="#CE7ED5" />
<rect x="12" y="22" width="2" height="2" fill="#CE7ED5" />
<rect x="14" y="22" width="2" height="2" fill="#CE7ED5" />
<rect x="16" y="22" width="2" height="2" fill="#CE7ED5" />
<rect x="28" y="22" width="2" height="2" fill="#CE7ED5" />
<rect x="30" y="22" width="2" height="2" fill="#CE7ED5" />
<rect x="32" y="22" width="2" height="2" fill="#CE7ED5" />
<rect x="34" y="22" width="2" height="2" fill="#CE7ED5" />
<rect x="36" y="22" width="2" height="2" fill="#CE7ED5" />
<rect x="38" y="22" width="2" height="2" fill="#CE7ED5" />
<rect x="40" y="22" width="2" height="2" fill="#CE7ED5" />
<rect x="42" y="22" width="2" height="2" fill="#CE7ED5" />
<rect x="44" y="22" width="2" height="2" fill="#CE7ED5" />
<rect x="0" y="24" width="2" height="2" fill="#CE7ED5" />
<rect x="2" y="24" width="2" height="2" fill="#CE7ED5" />
<rect x="4" y="24" width="2" height="2" fill="#CE7ED5" />
<rect x="6" y="24" width="2" height="2" fill="#CE7ED5" />
<rect x="8" y="24" width="2" height="2" fill="#CE7ED5" />
<rect x="10" y="24" width="2" height="2" fill="#CE7ED5" />
<rect x="12" y="24" width="2" height="2" fill="#CE7ED5" />
<rect x="14" y="24" width="2" height="2" fill="#CE7ED5" />
<rect x="16" y="24" width="2" height="2" fill="#CE7ED5" />
<rect x="28" y="24" width="2" height="2" fill="#CE7ED5" />
<rect x="30" y="24" width="2" height="2" fill="#CE7ED5" />
<rect x="32" y="24" width="2" height="2" fill="#CE7ED5" />
<rect x="34" y="24" width="2" height="2" fill="#CE7ED5" />
<rect x="36" y="24" width="2" height="2" fill="#CE7ED5" />
<rect x="38" y="24" width="2" height="2" fill="#CE7ED5" />
<rect x="40" y="24" width="2" height="2" fill="#CE7ED5" />
<rect x="42" y="24" width="2" height="2" fill="#CE7ED5" />
<rect x="44" y="24" width="2" height="2" fill="#CE7ED5" />
<rect x="0" y="26" width="2" height="2" fill="#CE7ED5" />
<rect x="2" y="26" width="2" height="2" fill="#CE7ED5" />
<rect x="4" y="26" width="2" height="2" fill="#CE7ED5" />
<rect x="6" y="26" width="2" height="2" fill="#CE7ED5" />
<rect x="8" y="26" width="2" height="2" fill="#CE7ED5" />
<rect x="10" y="26" width="2" height="2" fill="#CE7ED5" />
<rect x="12" y="26" width="2" height="2" fill="#CE7ED5" />
<rect x="14" y="26" width="2" height="2" fill="#CE7ED5" />
<rect x="16" y="26" width="2" height="2" fill="#CE7ED5" />
<rect x="28" y="26" width="2" height="2" fill="#CE7ED5" />
<rect x="30" y="26" width="2" height="2" fill="#CE7ED5" />
<rect x="32" y="26" width="2" height="2" fill="#CE7ED5" />
<rect x="34" y="26" width="2" height="2" fill="#CE7ED5" />
<rect x="36" y="26" width="2" height="2" fill="#CE7ED5" />
<rect x="38" y="26" width="2" height="2" fill="#CE7ED5" />
<rect x="40" y="26" width="2" height="2" fill="#CE7ED5" />
<rect x="42" y="26" width="2" height="2" fill="#CE7ED5" />
<rect x="44" y="26" width="2" height="2" fill="#CE7ED5" />
<rect x="18" y="28" width="2" height="2" fill="#CE7ED5" />
<rect x="20" y="28" width="2" height="2" fill="#CE7ED5" />
<rect x="22" y="28" width="2" height="2" fill="#CE7ED5" />
<rect x="24" y="28" width="2" height="2" fill="#CE7ED5" />
<rect x="26" y="28" width="2" height="2" fill="#CE7ED5" />
<rect x="18" y="30" width="2" height="2" fill="#CE7ED5" />
<rect x="20" y="30" width="2" height="2" fill="#CE7ED5" />
<rect x="22" y="30" width="2" height="2" fill="#CE7ED5" />
<rect x="24" y="30" width="2" height="2" fill="#CE7ED5" />
<rect x="26" y="30" width="2" height="2" fill="#CE7ED5" />
<rect x="18" y="32" width="2" height="2" fill="#CE7ED5" />
<rect x="20" y="32" width="2" height="2" fill="#CE7ED5" />
<rect x="22" y="32" width="2" height="2" fill="#CE7ED5" />
<rect x="24" y="32" width="2" height="2" fill="#CE7ED5" />
<rect x="26" y="32" width="2" height="2" fill="#CE7ED5" />
<rect x="18" y="34" width="2" height="2" fill="#CE7ED5" />
<rect x="20" y="34" width="2" height="2" fill="#CE7ED5" />
<rect x="22" y="34" width="2" height="2" fill="#CE7ED5" />
<rect x="24" y="34" width="2" height="2" fill="#CE7ED5" />
<rect x="26" y="34" width="2" height="2" fill="#CE7ED5" />
<rect x="18" y="36" width="2" height="2" fill="#CE7ED5" />
<rect x="20" y="36" width="2" height="2" fill="#CE7ED5" />
<rect x="22" y="36" width="2" height="2" fill="#CE7ED5" />
<rect x="24" y="36" width="2" height="2" fill="#CE7ED5" />
<rect x="26" y="36" width="2" height="2" fill="#CE7ED5" />
<rect x="18" y="38" width="2" height="2" fill="#CE7ED5" />
<rect x="20" y="38" width="2" height="2" fill="#CE7ED5" />
<rect x="22" y="38" width="2" height="2" fill="#CE7ED5" />
<rect x="24" y="38" width="2" height="2" fill="#CE7ED5" />
<rect x="26" y="38" width="2" height="2" fill="#CE7ED5" />
<rect x="18" y="40" width="2" height="2" fill="#CE7ED5" />
<rect x="20" y="40" width="2" height="2" fill="#CE7ED5" />
<rect x="22" y="40" width="2" height="2" fill="#CE7ED5" />
<rect x="24" y="40" width="2" height="2" fill="#CE7ED5" />
<rect x="26" y="40" width="2" height="2" fill="#CE7ED5" />
<rect x="18" y="42" width="2" height="2" fill="#CE7ED5" />
<rect x="20" y="42" width="2" height="2" fill="#CE7ED5" />
<rect x="22" y="42" width="2" height="2" fill="#CE7ED5" />
<rect x="24" y="42" width="2" height="2" fill="#CE7ED5" />
<rect x="26" y="42" width="2" height="2" fill="#CE7ED5" />
<rect x="18" y="44" width="2" height="2" fill="#CE7ED5" />
<rect x="20" y="44" width="2" height="2" fill="#CE7ED5" />
<rect x="22" y="44" width="2" height="2" fill="#CE7ED5" />
<rect x="24" y="44" width="2" height="2" fill="#CE7ED5" />
<rect x="26" y="44" width="2" height="2" fill="#CE7ED5" />
<rect x="68" y="46" width="2" height="2" fill="#CE7ED5" />
<rect x="70" y="46" width="2" height="2" fill="#CE7ED5" />
<rect x="72" y="46" width="2" height="2" fill="#CE7ED5" />
<rect x="68" y="48" width="2" height="2" fill="#CE7ED5" />
<rect x="70" y="48" width="2" height="2" fill="#CE7ED5" />
<rect x="72" y="48" width="2" height="2" fill="#CE7ED5" />
<rect x="68" y="50" width="2" height="2" fill="#CE7ED5" />
<rect x="70" y="50" width="2" height="2" fill="#CE7ED5" />
<rect x="72" y="50" width="2" height="2" fill="#CE7ED5" />
<rect x="68" y="52" width="2" height="2" fill="#CE7ED5" />
<rect x="70" y="52" width="2" height="2" fill="#CE7ED5" />
<rect x="72" y="52" width="2" height="2" fill="#CE7ED5" />
<rect x="68" y="54" width="2" height="2" fill="#CE7ED5" />
<rect x="70" y="54" width="2" height="2" fill="#CE7ED5" />
<rect x="72" y="54" width="2" height="2" fill="#CE7ED5" />
<rect x="68" y="56" width="2" height="2" fill="#CE7ED5" />
<rect x="70" y="56" width="2" height="2" fill="#CE7ED5" />
<rect x="72" y="56" width="2" height="2" fill="#CE7ED5" />
<rect x="56" y="58" width="2" height="2" fill="#CE7ED5" />
<rect x="58" y="58" width="2" height="2" fill="#CE7ED5" />
<rect x="60" y="58" width="2" height="2" fill="#CE7ED5" />
<rect x="62" y="58" width="2" height="2" fill="#CE7ED5" />
<rect x="64" y="58" width="2" height="2" fill="#CE7ED5" />
<rect x="66" y="58" width="2" height="2" fill="#CE7ED5" />
<rect x="74" y="58" width="2" height="2" fill="#CE7ED5" />
<rect x="76" y="58" width="2" height="2" fill="#CE7ED5" />
<rect x="78" y="58" width="2" height="2" fill="#CE7ED5" />
<rect x="80" y="58" width="2" height="2" fill="#CE7ED5" />
<rect x="82" y="58" width="2" height="2" fill="#CE7ED5" />
<rect x="84" y="58" width="2" height="2" fill="#CE7ED5" />
<rect x="56" y="60" width="2" height="2" fill="#CE7ED5" />
<rect x="58" y="60" width="2" height="2" fill="#CE7ED5" />
<rect x="60" y="60" width="2" height="2" fill="#CE7ED5" />
<rect x="62" y="60" width="2" height="2" fill="#CE7ED5" />
<rect x="64" y="60" width="2" height="2" fill="#CE7ED5" />
<rect x="66" y="60" width="2" height="2" fill="#CE7ED5" />
<rect x="74" y="60" width="2" height="2" fill="#CE7ED5" />
<rect x="76" y="60" width="2" height="2" fill="#CE7ED5" />
<rect x="78" y="60" width="2" height="2" fill="#CE7ED5" />
<rect x="80" y="60" width="2" height="2" fill="#CE7ED5" />
<rect x="82" y="60" width="2" height="2" fill="#CE7ED5" />
<rect x="84" y="60" width="2" height="2" fill="#CE7ED5" />
<rect x="56" y="62" width="2" height="2" fill="#CE7ED5" />
<rect x="58" y="62" width="2" height="2" fill="#CE7ED5" />
<rect x="60" y="62" width="2" height="2" fill="#CE7ED5" />
<rect x="62" y="62" width="2" height="2" fill="#CE7ED5" />
<rect x="64" y="62" width="2" height="2" fill="#CE7ED5" />
<rect x="66" y="62" width="2" height="2" fill="#CE7ED5" />
<rect x="74" y="62" width="2" height="2" fill="#CE7ED5" />
<rect x="76" y="62" width="2" height="2" fill="#CE7ED5" />
<rect x="78" y="62" width="2" height="2" fill="#CE7ED5" />
<rect x="80" y="62" width="2" height="2" fill="#CE7ED5" />
<rect x="82" y="62" width="2" height="2" fill="#CE7ED5" />
<rect x="84" y="62" width="2" height="2" fill="#CE7ED5" />
<rect x="28" y="64" width="2" height="2" fill="#CE7ED5" />
<rect x="30" y="64" width="2" height="2" fill="#CE7ED5" />
<rect x="68" y="64" width="2" height="2" fill="#CE7ED5" />
<rect x="70" y="64" width="2" height="2" fill="#CE7ED5" />
<rect x="72" y="64" width="2" height="2" fill="#CE7ED5" />
<rect x="28" y="66" width="2" height="2" fill="#CE7ED5" />
<rect x="30" y="66" width="2" height="2" fill="#CE7ED5" />
<rect x="68" y="66" width="2" height="2" fill="#CE7ED5" />
<rect x="70" y="66" width="2" height="2" fill="#CE7ED5" />
<rect x="72" y="66" width="2" height="2" fill="#CE7ED5" />
<rect x="28" y="68" width="2" height="2" fill="#CE7ED5" />
<rect x="30" y="68" width="2" height="2" fill="#CE7ED5" />
<rect x="68" y="68" width="2" height="2" fill="#CE7ED5" />
<rect x="70" y="68" width="2" height="2" fill="#CE7ED5" />
<rect x="72" y="68" width="2" height="2" fill="#CE7ED5" />
<rect x="28" y="70" width="2" height="2" fill="#CE7ED5" />
<rect x="30" y="70" width="2" height="2" fill="#CE7ED5" />
<rect x="68" y="70" width="2" height="2" fill="#CE7ED5" />
<rect x="70" y="70" width="2" height="2" fill="#CE7ED5" />
<rect x="72" y="70" width="2" height="2" fill="#CE7ED5" />
<rect x="28" y="72" width="2" height="2" fill="#CE7ED5" />
<rect x="30" y="72" width="2" height="2" fill="#CE7ED5" />
<rect x="68" y="72" width="2" height="2" fill="#CE7ED5" />
<rect x="70" y="72" width="2" height="2" fill="#CE7ED5" />
<rect x="72" y="72" width="2" height="2" fill="#CE7ED5" />
<rect x="18" y="74" width="2" height="2" fill="#CE7ED5" />
<rect x="20" y="74" width="2" height="2" fill="#CE7ED5" />
<rect x="22" y="74" width="2" height="2" fill="#CE7ED5" />
<rect x="24" y="74" width="2" height="2" fill="#CE7ED5" />
<rect x="26" y="74" width="2" height="2" fill="#CE7ED5" />
<rect x="32" y="74" width="2" height="2" fill="#CE7ED5" />
<rect x="34" y="74" width="2" height="2" fill="#CE7ED5" />
<rect x="36" y="74" width="2" height="2" fill="#CE7ED5" />
<rect x="38" y="74" width="2" height="2" fill="#CE7ED5" />
<rect x="40" y="74" width="2" height="2" fill="#CE7ED5" />
<rect x="68" y="74" width="2" height="2" fill="#CE7ED5" />
<rect x="70" y="74" width="2" height="2" fill="#CE7ED5" />
<rect x="72" y="74" width="2" height="2" fill="#CE7ED5" />
<rect x="18" y="76" width="2" height="2" fill="#CE7ED5" />
<rect x="20" y="76" width="2" height="2" fill="#CE7ED5" />
<rect x="22" y="76" width="2" height="2" fill="#CE7ED5" />
<rect x="24" y="76" width="2" height="2" fill="#CE7ED5" />
<rect x="26" y="76" width="2" height="2" fill="#CE7ED5" />
<rect x="32" y="76" width="2" height="2" fill="#CE7ED5" />
<rect x="34" y="76" width="2" height="2" fill="#CE7ED5" />
<rect x="36" y="76" width="2" height="2" fill="#CE7ED5" />
<rect x="38" y="76" width="2" height="2" fill="#CE7ED5" />
<rect x="40" y="76" width="2" height="2" fill="#CE7ED5" />
<rect x="28" y="78" width="2" height="2" fill="#CE7ED5" />
<rect x="30" y="78" width="2" height="2" fill="#CE7ED5" />
<rect x="28" y="80" width="2" height="2" fill="#CE7ED5" />
<rect x="30" y="80" width="2" height="2" fill="#CE7ED5" />
<rect x="28" y="82" width="2" height="2" fill="#CE7ED5" />
<rect x="30" y="82" width="2" height="2" fill="#CE7ED5" />
<rect x="28" y="84" width="2" height="2" fill="#CE7ED5" />
<rect x="30" y="84" width="2" height="2" fill="#CE7ED5" />
<rect x="28" y="86" width="2" height="2" fill="#CE7ED5" />
<rect x="30" y="86" width="2" height="2" fill="#CE7ED5" />
</svg>