<?xml version="1.0" encoding="UTF-8" ?>
<svg version="1.1" width="30" height="145" xmlns="http://www.w3.org/2000/svg" shape-rendering="crispEdges">
<rect x="25" y="0" width="5" height="5" fill="#B799DF" />
<rect x="15" y="5" width="5" height="5" fill="#B799DF" />
<rect x="20" y="5" width="5" height="5" fill="#B799DF" />
<rect x="25" y="5" width="5" height="5" fill="#B799DF" />
<rect x="10" y="10" width="5" height="5" fill="#B799DF" />
<rect x="15" y="10" width="5" height="5" fill="#B799DF" />
<rect x="20" y="10" width="5" height="5" fill="#B799DF" />
<rect x="25" y="10" width="5" height="5" fill="#EEE2FF" />
<rect x="5" y="15" width="5" height="5" fill="#B799DF" />
<rect x="10" y="15" width="5" height="5" fill="#B799DF" />
<rect x="15" y="15" width="5" height="5" fill="#B799DF" />
<rect x="20" y="15" width="5" height="5" fill="#EEE2FF" />
<rect x="25" y="15" width="5" height="5" fill="#EEE2FF" />
<rect x="5" y="20" width="5" height="5" fill="#B799DF" />
<rect x="10" y="20" width="5" height="5" fill="#B799DF" />
<rect x="15" y="20" width="5" height="5" fill="#EEE2FF" />
<rect x="20" y="20" width="5" height="5" fill="#EEE2FF" />
<rect x="25" y="20" width="5" height="5" fill="#EEE2FF" />
<rect x="0" y="25" width="5" height="5" fill="#B799DF" />
<rect x="5" y="25" width="5" height="5" fill="#B799DF" />
<rect x="10" y="25" width="5" height="5" fill="#EEE2FF" />
<rect x="15" y="25" width="5" height="5" fill="#EEE2FF" />
<rect x="20" y="25" width="5" height="5" fill="#EEE2FF" />
<rect x="25" y="25" width="5" height="5" fill="#EEE2FF" />
<rect x="0" y="30" width="5" height="5" fill="#B799DF" />
<rect x="5" y="30" width="5" height="5" fill="#B799DF" />
<rect x="10" y="30" width="5" height="5" fill="#EEE2FF" />
<rect x="15" y="30" width="5" height="5" fill="#EEE2FF" />
<rect x="20" y="30" width="5" height="5" fill="#EEE2FF" />
<rect x="25" y="30" width="5" height="5" fill="#EEE2FF" />
<rect x="0" y="35" width="5" height="5" fill="#B799DF" />
<rect x="5" y="35" width="5" height="5" fill="#B799DF" />
<rect x="10" y="35" width="5" height="5" fill="#EEE2FF" />
<rect x="15" y="35" width="5" height="5" fill="#EEE2FF" />
<rect x="20" y="35" width="5" height="5" fill="#EEE2FF" />
<rect x="25" y="35" width="5" height="5" fill="#EEE2FF" />
<rect x="0" y="40" width="5" height="5" fill="#B799DF" />
<rect x="5" y="40" width="5" height="5" fill="#B799DF" />
<rect x="10" y="40" width="5" height="5" fill="#EEE2FF" />
<rect x="15" y="40" width="5" height="5" fill="#EEE2FF" />
<rect x="20" y="40" width="5" height="5" fill="#EEE2FF" />
<rect x="25" y="40" width="5" height="5" fill="#EEE2FF" />
<rect x="0" y="45" width="5" height="5" fill="#B799DF" />
<rect x="5" y="45" width="5" height="5" fill="#B799DF" />
<rect x="10" y="45" width="5" height="5" fill="#EEE2FF" />
<rect x="15" y="45" width="5" height="5" fill="#EEE2FF" />
<rect x="20" y="45" width="5" height="5" fill="#EEE2FF" />
<rect x="25" y="45" width="5" height="5" fill="#EEE2FF" />
<rect x="0" y="50" width="5" height="5" fill="#B799DF" />
<rect x="5" y="50" width="5" height="5" fill="#B799DF" />
<rect x="10" y="50" width="5" height="5" fill="#EEE2FF" />
<rect x="15" y="50" width="5" height="5" fill="#EEE2FF" />
<rect x="20" y="50" width="5" height="5" fill="#EEE2FF" />
<rect x="25" y="50" width="5" height="5" fill="#EEE2FF" />
<rect x="0" y="55" width="5" height="5" fill="#B799DF" />
<rect x="5" y="55" width="5" height="5" fill="#B799DF" />
<rect x="10" y="55" width="5" height="5" fill="#EEE2FF" />
<rect x="15" y="55" width="5" height="5" fill="#EEE2FF" />
<rect x="20" y="55" width="5" height="5" fill="#EEE2FF" />
<rect x="25" y="55" width="5" height="5" fill="#EEE2FF" />
<rect x="0" y="60" width="5" height="5" fill="#B799DF" />
<rect x="5" y="60" width="5" height="5" fill="#B799DF" />
<rect x="10" y="60" width="5" height="5" fill="#EEE2FF" />
<rect x="15" y="60" width="5" height="5" fill="#EEE2FF" />
<rect x="20" y="60" width="5" height="5" fill="#EEE2FF" />
<rect x="25" y="60" width="5" height="5" fill="#EEE2FF" />
<rect x="0" y="65" width="5" height="5" fill="#B799DF" />
<rect x="5" y="65" width="5" height="5" fill="#B799DF" />
<rect x="10" y="65" width="5" height="5" fill="#EEE2FF" />
<rect x="15" y="65" width="5" height="5" fill="#EEE2FF" />
<rect x="20" y="65" width="5" height="5" fill="#EEE2FF" />
<rect x="25" y="65" width="5" height="5" fill="#EEE2FF" />
<rect x="0" y="70" width="5" height="5" fill="#B799DF" />
<rect x="5" y="70" width="5" height="5" fill="#B799DF" />
<rect x="10" y="70" width="5" height="5" fill="#EEE2FF" />
<rect x="15" y="70" width="5" height="5" fill="#EEE2FF" />
<rect x="20" y="70" width="5" height="5" fill="#EEE2FF" />
<rect x="25" y="70" width="5" height="5" fill="#EEE2FF" />
<rect x="0" y="75" width="5" height="5" fill="#B799DF" />
<rect x="5" y="75" width="5" height="5" fill="#B799DF" />
<rect x="10" y="75" width="5" height="5" fill="#EEE2FF" />
<rect x="15" y="75" width="5" height="5" fill="#EEE2FF" />
<rect x="20" y="75" width="5" height="5" fill="#EEE2FF" />
<rect x="25" y="75" width="5" height="5" fill="#EEE2FF" />
<rect x="0" y="80" width="5" height="5" fill="#B799DF" />
<rect x="5" y="80" width="5" height="5" fill="#B799DF" />
<rect x="10" y="80" width="5" height="5" fill="#EEE2FF" />
<rect x="15" y="80" width="5" height="5" fill="#EEE2FF" />
<rect x="20" y="80" width="5" height="5" fill="#EEE2FF" />
<rect x="25" y="80" width="5" height="5" fill="#EEE2FF" />
<rect x="0" y="85" width="5" height="5" fill="#B799DF" />
<rect x="5" y="85" width="5" height="5" fill="#B799DF" />
<rect x="10" y="85" width="5" height="5" fill="#EEE2FF" />
<rect x="15" y="85" width="5" height="5" fill="#EEE2FF" />
<rect x="20" y="85" width="5" height="5" fill="#EEE2FF" />
<rect x="25" y="85" width="5" height="5" fill="#EEE2FF" />
<rect x="0" y="90" width="5" height="5" fill="#B799DF" />
<rect x="5" y="90" width="5" height="5" fill="#B799DF" />
<rect x="10" y="90" width="5" height="5" fill="#EEE2FF" />
<rect x="15" y="90" width="5" height="5" fill="#EEE2FF" />
<rect x="20" y="90" width="5" height="5" fill="#EEE2FF" />
<rect x="25" y="90" width="5" height="5" fill="#EEE2FF" />
<rect x="0" y="95" width="5" height="5" fill="#B799DF" />
<rect x="5" y="95" width="5" height="5" fill="#B799DF" />
<rect x="10" y="95" width="5" height="5" fill="#EEE2FF" />
<rect x="15" y="95" width="5" height="5" fill="#EEE2FF" />
<rect x="20" y="95" width="5" height="5" fill="#EEE2FF" />
<rect x="25" y="95" width="5" height="5" fill="#EEE2FF" />
<rect x="0" y="100" width="5" height="5" fill="#B799DF" />
<rect x="5" y="100" width="5" height="5" fill="#B799DF" />
<rect x="10" y="100" width="5" height="5" fill="#EEE2FF" />
<rect x="15" y="100" width="5" height="5" fill="#EEE2FF" />
<rect x="20" y="100" width="5" height="5" fill="#EEE2FF" />
<rect x="25" y="100" width="5" height="5" fill="#EEE2FF" />
<rect x="0" y="105" width="5" height="5" fill="#B799DF" />
<rect x="5" y="105" width="5" height="5" fill="#B799DF" />
<rect x="10" y="105" width="5" height="5" fill="#EEE2FF" />
<rect x="15" y="105" width="5" height="5" fill="#EEE2FF" />
<rect x="20" y="105" width="5" height="5" fill="#EEE2FF" />
<rect x="25" y="105" width="5" height="5" fill="#EEE2FF" />
<rect x="0" y="110" width="5" height="5" fill="#B799DF" />
<rect x="5" y="110" width="5" height="5" fill="#B799DF" />
<rect x="10" y="110" width="5" height="5" fill="#EEE2FF" />
<rect x="15" y="110" width="5" height="5" fill="#EEE2FF" />
<rect x="20" y="110" width="5" height="5" fill="#EEE2FF" />
<rect x="25" y="110" width="5" height="5" fill="#EEE2FF" />
<rect x="0" y="115" width="5" height="5" fill="#B799DF" />
<rect x="5" y="115" width="5" height="5" fill="#B799DF" />
<rect x="10" y="115" width="5" height="5" fill="#EEE2FF" />
<rect x="15" y="115" width="5" height="5" fill="#EEE2FF" />
<rect x="20" y="115" width="5" height="5" fill="#EEE2FF" />
<rect x="25" y="115" width="5" height="5" fill="#EEE2FF" />
<rect x="0" y="120" width="5" height="5" fill="#B799DF" />
<rect x="5" y="120" width="5" height="5" fill="#B799DF" />
<rect x="10" y="120" width="5" height="5" fill="#B799DF" />
<rect x="15" y="120" width="5" height="5" fill="#EEE2FF" />
<rect x="20" y="120" width="5" height="5" fill="#EEE2FF" />
<rect x="25" y="120" width="5" height="5" fill="#EEE2FF" />
<rect x="5" y="125" width="5" height="5" fill="#B799DF" />
<rect x="10" y="125" width="5" height="5" fill="#B799DF" />
<rect x="15" y="125" width="5" height="5" fill="#B799DF" />
<rect x="20" y="125" width="5" height="5" fill="#EEE2FF" />
<rect x="25" y="125" width="5" height="5" fill="#EEE2FF" />
<rect x="10" y="130" width="5" height="5" fill="#B799DF" />
<rect x="15" y="130" width="5" height="5" fill="#B799DF" />
<rect x="20" y="130" width="5" height="5" fill="#B799DF" />
<rect x="25" y="130" width="5" height="5" fill="#D4BCF5" />
<rect x="15" y="135" width="5" height="5" fill="#B799DF" />
<rect x="20" y="135" width="5" height="5" fill="#B799DF" />
<rect x="25" y="135" width="5" height="5" fill="#B799DF" />
<rect x="25" y="140" width="5" height="5" fill="#B799DF" />
</svg>