<?xml version="1.0" encoding="UTF-8" ?>
<svg version="1.1" width="5" height="145" xmlns="http://www.w3.org/2000/svg" shape-rendering="crispEdges">
<rect x="0" y="0" width="5" height="5" fill="#B799DF" />
<rect x="0" y="5" width="5" height="5" fill="#B799DF" />
<rect x="0" y="10" width="5" height="5" fill="#EEE2FF" />
<rect x="0" y="15" width="5" height="5" fill="#EEE2FF" />
<rect x="0" y="20" width="5" height="5" fill="#EEE2FF" />
<rect x="0" y="25" width="5" height="5" fill="#EEE2FF" />
<rect x="0" y="30" width="5" height="5" fill="#EEE2FF" />
<rect x="0" y="35" width="5" height="5" fill="#EEE2FF" />
<rect x="0" y="40" width="5" height="5" fill="#EEE2FF" />
<rect x="0" y="45" width="5" height="5" fill="#EEE2FF" />
<rect x="0" y="50" width="5" height="5" fill="#EEE2FF" />
<rect x="0" y="55" width="5" height="5" fill="#EEE2FF" />
<rect x="0" y="60" width="5" height="5" fill="#EEE2FF" />
<rect x="0" y="65" width="5" height="5" fill="#EEE2FF" />
<rect x="0" y="70" width="5" height="5" fill="#EEE2FF" />
<rect x="0" y="75" width="5" height="5" fill="#EEE2FF" />
<rect x="0" y="80" width="5" height="5" fill="#EEE2FF" />
<rect x="0" y="85" width="5" height="5" fill="#EEE2FF" />
<rect x="0" y="90" width="5" height="5" fill="#EEE2FF" />
<rect x="0" y="95" width="5" height="5" fill="#EEE2FF" />
<rect x="0" y="100" width="5" height="5" fill="#EEE2FF" />
<rect x="0" y="105" width="5" height="5" fill="#EEE2FF" />
<rect x="0" y="110" width="5" height="5" fill="#EEE2FF" />
<rect x="0" y="115" width="5" height="5" fill="#EEE2FF" />
<rect x="0" y="120" width="5" height="5" fill="#EEE2FF" />
<rect x="0" y="125" width="5" height="5" fill="#EEE2FF" />
<rect x="0" y="130" width="5" height="5" fill="#D4BCF5" />
<rect x="0" y="135" width="5" height="5" fill="#B799DF" />
<rect x="0" y="140" width="5" height="5" fill="#B799DF" />
</svg>