<?xml version="1.0" encoding="UTF-8" ?>
<svg version="1.1" width="5" height="415" xmlns="http://www.w3.org/2000/svg" shape-rendering="crispEdges">
<rect x="0" y="0" width="5" height="5" fill="#B799DF" />
<rect x="0" y="5" width="5" height="5" fill="#B799DF" />
<rect x="0" y="10" width="5" height="5" fill="#EEE2FF" />
<rect x="0" y="15" width="5" height="5" fill="#EEE2FF" />
<rect x="0" y="20" width="5" height="5" fill="#EEE2FF" />
<rect x="0" y="25" width="5" height="5" fill="#EEE2FF" />
<rect x="0" y="30" width="5" height="5" fill="#EEE2FF" />
<rect x="0" y="35" width="5" height="5" fill="#EEE2FF" />
<rect x="0" y="40" width="5" height="5" fill="#EEE2FF" />
<rect x="0" y="45" width="5" height="5" fill="#EEE2FF" />
<rect x="0" y="50" width="5" height="5" fill="#EEE2FF" />
<rect x="0" y="55" width="5" height="5" fill="#EEE2FF" />
<rect x="0" y="60" width="5" height="5" fill="#EEE2FF" />
<rect x="0" y="65" width="5" height="5" fill="#EEE2FF" />
<rect x="0" y="70" width="5" height="5" fill="#EEE2FF" />
<rect x="0" y="75" width="5" height="5" fill="#EEE2FF" />
<rect x="0" y="80" width="5" height="5" fill="#EEE2FF" />
<rect x="0" y="85" width="5" height="5" fill="#EEE2FF" />
<rect x="0" y="90" width="5" height="5" fill="#EEE2FF" />
<rect x="0" y="95" width="5" height="5" fill="#EEE2FF" />
<rect x="0" y="100" width="5" height="5" fill="#EEE2FF" />
<rect x="0" y="105" width="5" height="5" fill="#EEE2FF" />
<rect x="0" y="110" width="5" height="5" fill="#EEE2FF" />
<rect x="0" y="115" width="5" height="5" fill="#EEE2FF" />
<rect x="0" y="120" width="5" height="5" fill="#EEE2FF" />
<rect x="0" y="125" width="5" height="5" fill="#EEE2FF" />
<rect x="0" y="130" width="5" height="5" fill="#EEE2FF" />
<rect x="0" y="135" width="5" height="5" fill="#EEE2FF" />
<rect x="0" y="140" width="5" height="5" fill="#EEE2FF" />
<rect x="0" y="145" width="5" height="5" fill="#EEE2FF" />
<rect x="0" y="150" width="5" height="5" fill="#EEE2FF" />
<rect x="0" y="155" width="5" height="5" fill="#EEE2FF" />
<rect x="0" y="160" width="5" height="5" fill="#EEE2FF" />
<rect x="0" y="165" width="5" height="5" fill="#EEE2FF" />
<rect x="0" y="170" width="5" height="5" fill="#EEE2FF" />
<rect x="0" y="175" width="5" height="5" fill="#EEE2FF" />
<rect x="0" y="180" width="5" height="5" fill="#EEE2FF" />
<rect x="0" y="185" width="5" height="5" fill="#EEE2FF" />
<rect x="0" y="190" width="5" height="5" fill="#EEE2FF" />
<rect x="0" y="195" width="5" height="5" fill="#EEE2FF" />
<rect x="0" y="200" width="5" height="5" fill="#EEE2FF" />
<rect x="0" y="205" width="5" height="5" fill="#EEE2FF" />
<rect x="0" y="210" width="5" height="5" fill="#EEE2FF" />
<rect x="0" y="215" width="5" height="5" fill="#EEE2FF" />
<rect x="0" y="220" width="5" height="5" fill="#EEE2FF" />
<rect x="0" y="225" width="5" height="5" fill="#EEE2FF" />
<rect x="0" y="230" width="5" height="5" fill="#EEE2FF" />
<rect x="0" y="235" width="5" height="5" fill="#EEE2FF" />
<rect x="0" y="240" width="5" height="5" fill="#EEE2FF" />
<rect x="0" y="245" width="5" height="5" fill="#EEE2FF" />
<rect x="0" y="250" width="5" height="5" fill="#EEE2FF" />
<rect x="0" y="255" width="5" height="5" fill="#EEE2FF" />
<rect x="0" y="260" width="5" height="5" fill="#EEE2FF" />
<rect x="0" y="265" width="5" height="5" fill="#EEE2FF" />
<rect x="0" y="270" width="5" height="5" fill="#EEE2FF" />
<rect x="0" y="275" width="5" height="5" fill="#EEE2FF" />
<rect x="0" y="280" width="5" height="5" fill="#EEE2FF" />
<rect x="0" y="285" width="5" height="5" fill="#EEE2FF" />
<rect x="0" y="290" width="5" height="5" fill="#EEE2FF" />
<rect x="0" y="295" width="5" height="5" fill="#EEE2FF" />
<rect x="0" y="300" width="5" height="5" fill="#EEE2FF" />
<rect x="0" y="305" width="5" height="5" fill="#EEE2FF" />
<rect x="0" y="310" width="5" height="5" fill="#EEE2FF" />
<rect x="0" y="315" width="5" height="5" fill="#EEE2FF" />
<rect x="0" y="320" width="5" height="5" fill="#EEE2FF" />
<rect x="0" y="325" width="5" height="5" fill="#EEE2FF" />
<rect x="0" y="330" width="5" height="5" fill="#EEE2FF" />
<rect x="0" y="335" width="5" height="5" fill="#EEE2FF" />
<rect x="0" y="340" width="5" height="5" fill="#EEE2FF" />
<rect x="0" y="345" width="5" height="5" fill="#EEE2FF" />
<rect x="0" y="350" width="5" height="5" fill="#EEE2FF" />
<rect x="0" y="355" width="5" height="5" fill="#EEE2FF" />
<rect x="0" y="360" width="5" height="5" fill="#EEE2FF" />
<rect x="0" y="365" width="5" height="5" fill="#EEE2FF" />
<rect x="0" y="370" width="5" height="5" fill="#EEE2FF" />
<rect x="0" y="375" width="5" height="5" fill="#EEE2FF" />
<rect x="0" y="380" width="5" height="5" fill="#EEE2FF" />
<rect x="0" y="385" width="5" height="5" fill="#EEE2FF" />
<rect x="0" y="390" width="5" height="5" fill="#EEE2FF" />
<rect x="0" y="395" width="5" height="5" fill="#EEE2FF" />
<rect x="0" y="400" width="5" height="5" fill="#D4BCF5" />
<rect x="0" y="405" width="5" height="5" fill="#B799DF" />
<rect x="0" y="410" width="5" height="5" fill="#B799DF" />
</svg>