<?xml version="1.0" encoding="UTF-8" ?>
<svg version="1.1" width="5" height="700" xmlns="http://www.w3.org/2000/svg" shape-rendering="crispEdges">
<rect x="0" y="0" width="5" height="5" fill="#8F82EE" />
<rect x="0" y="5" width="5" height="5" fill="#8F82EE" />
<rect x="0" y="10" width="5" height="5" fill="#BDB4FF" />
<rect x="0" y="15" width="5" height="5" fill="#BDB4FF" />
<rect x="0" y="20" width="5" height="5" fill="#BDB4FF" />
<rect x="0" y="25" width="5" height="5" fill="#BDB4FF" />
<rect x="0" y="30" width="5" height="5" fill="#BDB4FF" />
<rect x="0" y="35" width="5" height="5" fill="#BDB4FF" />
<rect x="0" y="40" width="5" height="5" fill="#BDB4FF" />
<rect x="0" y="45" width="5" height="5" fill="#BDB4FF" />
<rect x="0" y="50" width="5" height="5" fill="#BDB4FF" />
<rect x="0" y="55" width="5" height="5" fill="#BDB4FF" />
<rect x="0" y="60" width="5" height="5" fill="#BDB4FF" />
<rect x="0" y="65" width="5" height="5" fill="#BDB4FF" />
<rect x="0" y="70" width="5" height="5" fill="#BDB4FF" />
<rect x="0" y="75" width="5" height="5" fill="#BDB4FF" />
<rect x="0" y="80" width="5" height="5" fill="#BDB4FF" />
<rect x="0" y="85" width="5" height="5" fill="#BDB4FF" />
<rect x="0" y="90" width="5" height="5" fill="#BDB4FF" />
<rect x="0" y="95" width="5" height="5" fill="#BDB4FF" />
<rect x="0" y="100" width="5" height="5" fill="#BDB4FF" />
<rect x="0" y="105" width="5" height="5" fill="#BDB4FF" />
<rect x="0" y="110" width="5" height="5" fill="#BDB4FF" />
<rect x="0" y="115" width="5" height="5" fill="#BDB4FF" />
<rect x="0" y="120" width="5" height="5" fill="#BDB4FF" />
<rect x="0" y="125" width="5" height="5" fill="#BDB4FF" />
<rect x="0" y="130" width="5" height="5" fill="#BDB4FF" />
<rect x="0" y="135" width="5" height="5" fill="#BDB4FF" />
<rect x="0" y="140" width="5" height="5" fill="#BDB4FF" />
<rect x="0" y="145" width="5" height="5" fill="#BDB4FF" />
<rect x="0" y="150" width="5" height="5" fill="#BDB4FF" />
<rect x="0" y="155" width="5" height="5" fill="#BDB4FF" />
<rect x="0" y="160" width="5" height="5" fill="#BDB4FF" />
<rect x="0" y="165" width="5" height="5" fill="#BDB4FF" />
<rect x="0" y="170" width="5" height="5" fill="#BDB4FF" />
<rect x="0" y="175" width="5" height="5" fill="#BDB4FF" />
<rect x="0" y="180" width="5" height="5" fill="#BDB4FF" />
<rect x="0" y="185" width="5" height="5" fill="#BDB4FF" />
<rect x="0" y="190" width="5" height="5" fill="#BDB4FF" />
<rect x="0" y="195" width="5" height="5" fill="#BDB4FF" />
<rect x="0" y="200" width="5" height="5" fill="#BDB4FF" />
<rect x="0" y="205" width="5" height="5" fill="#BDB4FF" />
<rect x="0" y="210" width="5" height="5" fill="#BDB4FF" />
<rect x="0" y="215" width="5" height="5" fill="#BDB4FF" />
<rect x="0" y="220" width="5" height="5" fill="#BDB4FF" />
<rect x="0" y="225" width="5" height="5" fill="#BDB4FF" />
<rect x="0" y="230" width="5" height="5" fill="#BDB4FF" />
<rect x="0" y="235" width="5" height="5" fill="#BDB4FF" />
<rect x="0" y="240" width="5" height="5" fill="#BDB4FF" />
<rect x="0" y="245" width="5" height="5" fill="#BDB4FF" />
<rect x="0" y="250" width="5" height="5" fill="#BDB4FF" />
<rect x="0" y="255" width="5" height="5" fill="#BDB4FF" />
<rect x="0" y="260" width="5" height="5" fill="#BDB4FF" />
<rect x="0" y="265" width="5" height="5" fill="#BDB4FF" />
<rect x="0" y="270" width="5" height="5" fill="#BDB4FF" />
<rect x="0" y="275" width="5" height="5" fill="#BDB4FF" />
<rect x="0" y="280" width="5" height="5" fill="#BDB4FF" />
<rect x="0" y="285" width="5" height="5" fill="#BDB4FF" />
<rect x="0" y="290" width="5" height="5" fill="#BDB4FF" />
<rect x="0" y="295" width="5" height="5" fill="#BDB4FF" />
<rect x="0" y="300" width="5" height="5" fill="#BDB4FF" />
<rect x="0" y="305" width="5" height="5" fill="#BDB4FF" />
<rect x="0" y="310" width="5" height="5" fill="#BDB4FF" />
<rect x="0" y="315" width="5" height="5" fill="#BDB4FF" />
<rect x="0" y="320" width="5" height="5" fill="#BDB4FF" />
<rect x="0" y="325" width="5" height="5" fill="#BDB4FF" />
<rect x="0" y="330" width="5" height="5" fill="#BDB4FF" />
<rect x="0" y="335" width="5" height="5" fill="#BDB4FF" />
<rect x="0" y="340" width="5" height="5" fill="#BDB4FF" />
<rect x="0" y="345" width="5" height="5" fill="#BDB4FF" />
<rect x="0" y="350" width="5" height="5" fill="#BDB4FF" />
<rect x="0" y="355" width="5" height="5" fill="#BDB4FF" />
<rect x="0" y="360" width="5" height="5" fill="#BDB4FF" />
<rect x="0" y="365" width="5" height="5" fill="#BDB4FF" />
<rect x="0" y="370" width="5" height="5" fill="#BDB4FF" />
<rect x="0" y="375" width="5" height="5" fill="#BDB4FF" />
<rect x="0" y="380" width="5" height="5" fill="#BDB4FF" />
<rect x="0" y="385" width="5" height="5" fill="#BDB4FF" />
<rect x="0" y="390" width="5" height="5" fill="#BDB4FF" />
<rect x="0" y="395" width="5" height="5" fill="#BDB4FF" />
<rect x="0" y="400" width="5" height="5" fill="#BDB4FF" />
<rect x="0" y="405" width="5" height="5" fill="#BDB4FF" />
<rect x="0" y="410" width="5" height="5" fill="#BDB4FF" />
<rect x="0" y="415" width="5" height="5" fill="#BDB4FF" />
<rect x="0" y="420" width="5" height="5" fill="#BDB4FF" />
<rect x="0" y="425" width="5" height="5" fill="#BDB4FF" />
<rect x="0" y="430" width="5" height="5" fill="#BDB4FF" />
<rect x="0" y="435" width="5" height="5" fill="#BDB4FF" />
<rect x="0" y="440" width="5" height="5" fill="#BDB4FF" />
<rect x="0" y="445" width="5" height="5" fill="#BDB4FF" />
<rect x="0" y="450" width="5" height="5" fill="#BDB4FF" />
<rect x="0" y="455" width="5" height="5" fill="#BDB4FF" />
<rect x="0" y="460" width="5" height="5" fill="#BDB4FF" />
<rect x="0" y="465" width="5" height="5" fill="#BDB4FF" />
<rect x="0" y="470" width="5" height="5" fill="#BDB4FF" />
<rect x="0" y="475" width="5" height="5" fill="#BDB4FF" />
<rect x="0" y="480" width="5" height="5" fill="#BDB4FF" />
<rect x="0" y="485" width="5" height="5" fill="#BDB4FF" />
<rect x="0" y="490" width="5" height="5" fill="#BDB4FF" />
<rect x="0" y="495" width="5" height="5" fill="#BDB4FF" />
<rect x="0" y="500" width="5" height="5" fill="#BDB4FF" />
<rect x="0" y="505" width="5" height="5" fill="#BDB4FF" />
<rect x="0" y="510" width="5" height="5" fill="#BDB4FF" />
<rect x="0" y="515" width="5" height="5" fill="#BDB4FF" />
<rect x="0" y="520" width="5" height="5" fill="#BDB4FF" />
<rect x="0" y="525" width="5" height="5" fill="#BDB4FF" />
<rect x="0" y="530" width="5" height="5" fill="#BDB4FF" />
<rect x="0" y="535" width="5" height="5" fill="#BDB4FF" />
<rect x="0" y="540" width="5" height="5" fill="#BDB4FF" />
<rect x="0" y="545" width="5" height="5" fill="#BDB4FF" />
<rect x="0" y="550" width="5" height="5" fill="#BDB4FF" />
<rect x="0" y="555" width="5" height="5" fill="#BDB4FF" />
<rect x="0" y="560" width="5" height="5" fill="#BDB4FF" />
<rect x="0" y="565" width="5" height="5" fill="#BDB4FF" />
<rect x="0" y="570" width="5" height="5" fill="#BDB4FF" />
<rect x="0" y="575" width="5" height="5" fill="#BDB4FF" />
<rect x="0" y="580" width="5" height="5" fill="#BDB4FF" />
<rect x="0" y="585" width="5" height="5" fill="#BDB4FF" />
<rect x="0" y="590" width="5" height="5" fill="#BDB4FF" />
<rect x="0" y="595" width="5" height="5" fill="#BDB4FF" />
<rect x="0" y="600" width="5" height="5" fill="#BDB4FF" />
<rect x="0" y="605" width="5" height="5" fill="#BDB4FF" />
<rect x="0" y="610" width="5" height="5" fill="#BDB4FF" />
<rect x="0" y="615" width="5" height="5" fill="#BDB4FF" />
<rect x="0" y="620" width="5" height="5" fill="#BDB4FF" />
<rect x="0" y="625" width="5" height="5" fill="#BDB4FF" />
<rect x="0" y="630" width="5" height="5" fill="#BDB4FF" />
<rect x="0" y="635" width="5" height="5" fill="#BDB4FF" />
<rect x="0" y="640" width="5" height="5" fill="#BDB4FF" />
<rect x="0" y="645" width="5" height="5" fill="#BDB4FF" />
<rect x="0" y="650" width="5" height="5" fill="#BDB4FF" />
<rect x="0" y="655" width="5" height="5" fill="#BDB4FF" />
<rect x="0" y="660" width="5" height="5" fill="#BDB4FF" />
<rect x="0" y="665" width="5" height="5" fill="#BDB4FF" />
<rect x="0" y="670" width="5" height="5" fill="#BDB4FF" />
<rect x="0" y="675" width="5" height="5" fill="#BDB4FF" />
<rect x="0" y="680" width="5" height="5" fill="#BDB4FF" />
<rect x="0" y="685" width="5" height="5" fill="#A79BFF" />
<rect x="0" y="690" width="5" height="5" fill="#8F82EE" />
<rect x="0" y="695" width="5" height="5" fill="#8F82EE" />
</svg>