<?xml version="1.0" encoding="UTF-8" ?>
<svg version="1.1" width="215" height="220" xmlns="http://www.w3.org/2000/svg" shape-rendering="crispEdges">
<rect x="145" y="0" width="5" height="5" fill="#CE7ED5" />
<rect x="150" y="0" width="5" height="5" fill="#CE7ED5" />
<rect x="155" y="0" width="5" height="5" fill="#CE7ED5" />
<rect x="160" y="0" width="5" height="5" fill="#CE7ED5" />
<rect x="165" y="0" width="5" height="5" fill="#CE7ED5" />
<rect x="145" y="5" width="5" height="5" fill="#CE7ED5" />
<rect x="150" y="5" width="5" height="5" fill="#CE7ED5" />
<rect x="155" y="5" width="5" height="5" fill="#CE7ED5" />
<rect x="160" y="5" width="5" height="5" fill="#CE7ED5" />
<rect x="165" y="5" width="5" height="5" fill="#CE7ED5" />
<rect x="145" y="10" width="5" height="5" fill="#CE7ED5" />
<rect x="150" y="10" width="5" height="5" fill="#CE7ED5" />
<rect x="155" y="10" width="5" height="5" fill="#CE7ED5" />
<rect x="160" y="10" width="5" height="5" fill="#CE7ED5" />
<rect x="165" y="10" width="5" height="5" fill="#CE7ED5" />
<rect x="145" y="15" width="5" height="5" fill="#CE7ED5" />
<rect x="150" y="15" width="5" height="5" fill="#CE7ED5" />
<rect x="155" y="15" width="5" height="5" fill="#CE7ED5" />
<rect x="160" y="15" width="5" height="5" fill="#CE7ED5" />
<rect x="165" y="15" width="5" height="5" fill="#CE7ED5" />
<rect x="145" y="20" width="5" height="5" fill="#CE7ED5" />
<rect x="150" y="20" width="5" height="5" fill="#CE7ED5" />
<rect x="155" y="20" width="5" height="5" fill="#CE7ED5" />
<rect x="160" y="20" width="5" height="5" fill="#CE7ED5" />
<rect x="165" y="20" width="5" height="5" fill="#CE7ED5" />
<rect x="145" y="25" width="5" height="5" fill="#CE7ED5" />
<rect x="150" y="25" width="5" height="5" fill="#CE7ED5" />
<rect x="155" y="25" width="5" height="5" fill="#CE7ED5" />
<rect x="160" y="25" width="5" height="5" fill="#CE7ED5" />
<rect x="165" y="25" width="5" height="5" fill="#CE7ED5" />
<rect x="145" y="30" width="5" height="5" fill="#CE7ED5" />
<rect x="150" y="30" width="5" height="5" fill="#CE7ED5" />
<rect x="155" y="30" width="5" height="5" fill="#CE7ED5" />
<rect x="160" y="30" width="5" height="5" fill="#CE7ED5" />
<rect x="165" y="30" width="5" height="5" fill="#CE7ED5" />
<rect x="145" y="35" width="5" height="5" fill="#CE7ED5" />
<rect x="150" y="35" width="5" height="5" fill="#CE7ED5" />
<rect x="155" y="35" width="5" height="5" fill="#CE7ED5" />
<rect x="160" y="35" width="5" height="5" fill="#CE7ED5" />
<rect x="165" y="35" width="5" height="5" fill="#CE7ED5" />
<rect x="145" y="40" width="5" height="5" fill="#CE7ED5" />
<rect x="150" y="40" width="5" height="5" fill="#CE7ED5" />
<rect x="155" y="40" width="5" height="5" fill="#CE7ED5" />
<rect x="160" y="40" width="5" height="5" fill="#CE7ED5" />
<rect x="165" y="40" width="5" height="5" fill="#CE7ED5" />
<rect x="100" y="45" width="5" height="5" fill="#CE7ED5" />
<rect x="105" y="45" width="5" height="5" fill="#CE7ED5" />
<rect x="110" y="45" width="5" height="5" fill="#CE7ED5" />
<rect x="115" y="45" width="5" height="5" fill="#CE7ED5" />
<rect x="120" y="45" width="5" height="5" fill="#CE7ED5" />
<rect x="125" y="45" width="5" height="5" fill="#CE7ED5" />
<rect x="130" y="45" width="5" height="5" fill="#CE7ED5" />
<rect x="135" y="45" width="5" height="5" fill="#CE7ED5" />
<rect x="140" y="45" width="5" height="5" fill="#CE7ED5" />
<rect x="170" y="45" width="5" height="5" fill="#CE7ED5" />
<rect x="175" y="45" width="5" height="5" fill="#CE7ED5" />
<rect x="180" y="45" width="5" height="5" fill="#CE7ED5" />
<rect x="185" y="45" width="5" height="5" fill="#CE7ED5" />
<rect x="190" y="45" width="5" height="5" fill="#CE7ED5" />
<rect x="195" y="45" width="5" height="5" fill="#CE7ED5" />
<rect x="200" y="45" width="5" height="5" fill="#CE7ED5" />
<rect x="205" y="45" width="5" height="5" fill="#CE7ED5" />
<rect x="210" y="45" width="5" height="5" fill="#CE7ED5" />
<rect x="100" y="50" width="5" height="5" fill="#CE7ED5" />
<rect x="105" y="50" width="5" height="5" fill="#CE7ED5" />
<rect x="110" y="50" width="5" height="5" fill="#CE7ED5" />
<rect x="115" y="50" width="5" height="5" fill="#CE7ED5" />
<rect x="120" y="50" width="5" height="5" fill="#CE7ED5" />
<rect x="125" y="50" width="5" height="5" fill="#CE7ED5" />
<rect x="130" y="50" width="5" height="5" fill="#CE7ED5" />
<rect x="135" y="50" width="5" height="5" fill="#CE7ED5" />
<rect x="140" y="50" width="5" height="5" fill="#CE7ED5" />
<rect x="170" y="50" width="5" height="5" fill="#CE7ED5" />
<rect x="175" y="50" width="5" height="5" fill="#CE7ED5" />
<rect x="180" y="50" width="5" height="5" fill="#CE7ED5" />
<rect x="185" y="50" width="5" height="5" fill="#CE7ED5" />
<rect x="190" y="50" width="5" height="5" fill="#CE7ED5" />
<rect x="195" y="50" width="5" height="5" fill="#CE7ED5" />
<rect x="200" y="50" width="5" height="5" fill="#CE7ED5" />
<rect x="205" y="50" width="5" height="5" fill="#CE7ED5" />
<rect x="210" y="50" width="5" height="5" fill="#CE7ED5" />
<rect x="100" y="55" width="5" height="5" fill="#CE7ED5" />
<rect x="105" y="55" width="5" height="5" fill="#CE7ED5" />
<rect x="110" y="55" width="5" height="5" fill="#CE7ED5" />
<rect x="115" y="55" width="5" height="5" fill="#CE7ED5" />
<rect x="120" y="55" width="5" height="5" fill="#CE7ED5" />
<rect x="125" y="55" width="5" height="5" fill="#CE7ED5" />
<rect x="130" y="55" width="5" height="5" fill="#CE7ED5" />
<rect x="135" y="55" width="5" height="5" fill="#CE7ED5" />
<rect x="140" y="55" width="5" height="5" fill="#CE7ED5" />
<rect x="170" y="55" width="5" height="5" fill="#CE7ED5" />
<rect x="175" y="55" width="5" height="5" fill="#CE7ED5" />
<rect x="180" y="55" width="5" height="5" fill="#CE7ED5" />
<rect x="185" y="55" width="5" height="5" fill="#CE7ED5" />
<rect x="190" y="55" width="5" height="5" fill="#CE7ED5" />
<rect x="195" y="55" width="5" height="5" fill="#CE7ED5" />
<rect x="200" y="55" width="5" height="5" fill="#CE7ED5" />
<rect x="205" y="55" width="5" height="5" fill="#CE7ED5" />
<rect x="210" y="55" width="5" height="5" fill="#CE7ED5" />
<rect x="100" y="60" width="5" height="5" fill="#CE7ED5" />
<rect x="105" y="60" width="5" height="5" fill="#CE7ED5" />
<rect x="110" y="60" width="5" height="5" fill="#CE7ED5" />
<rect x="115" y="60" width="5" height="5" fill="#CE7ED5" />
<rect x="120" y="60" width="5" height="5" fill="#CE7ED5" />
<rect x="125" y="60" width="5" height="5" fill="#CE7ED5" />
<rect x="130" y="60" width="5" height="5" fill="#CE7ED5" />
<rect x="135" y="60" width="5" height="5" fill="#CE7ED5" />
<rect x="140" y="60" width="5" height="5" fill="#CE7ED5" />
<rect x="170" y="60" width="5" height="5" fill="#CE7ED5" />
<rect x="175" y="60" width="5" height="5" fill="#CE7ED5" />
<rect x="180" y="60" width="5" height="5" fill="#CE7ED5" />
<rect x="185" y="60" width="5" height="5" fill="#CE7ED5" />
<rect x="190" y="60" width="5" height="5" fill="#CE7ED5" />
<rect x="195" y="60" width="5" height="5" fill="#CE7ED5" />
<rect x="200" y="60" width="5" height="5" fill="#CE7ED5" />
<rect x="205" y="60" width="5" height="5" fill="#CE7ED5" />
<rect x="210" y="60" width="5" height="5" fill="#CE7ED5" />
<rect x="100" y="65" width="5" height="5" fill="#CE7ED5" />
<rect x="105" y="65" width="5" height="5" fill="#CE7ED5" />
<rect x="110" y="65" width="5" height="5" fill="#CE7ED5" />
<rect x="115" y="65" width="5" height="5" fill="#CE7ED5" />
<rect x="120" y="65" width="5" height="5" fill="#CE7ED5" />
<rect x="125" y="65" width="5" height="5" fill="#CE7ED5" />
<rect x="130" y="65" width="5" height="5" fill="#CE7ED5" />
<rect x="135" y="65" width="5" height="5" fill="#CE7ED5" />
<rect x="140" y="65" width="5" height="5" fill="#CE7ED5" />
<rect x="170" y="65" width="5" height="5" fill="#CE7ED5" />
<rect x="175" y="65" width="5" height="5" fill="#CE7ED5" />
<rect x="180" y="65" width="5" height="5" fill="#CE7ED5" />
<rect x="185" y="65" width="5" height="5" fill="#CE7ED5" />
<rect x="190" y="65" width="5" height="5" fill="#CE7ED5" />
<rect x="195" y="65" width="5" height="5" fill="#CE7ED5" />
<rect x="200" y="65" width="5" height="5" fill="#CE7ED5" />
<rect x="205" y="65" width="5" height="5" fill="#CE7ED5" />
<rect x="210" y="65" width="5" height="5" fill="#CE7ED5" />
<rect x="145" y="70" width="5" height="5" fill="#CE7ED5" />
<rect x="150" y="70" width="5" height="5" fill="#CE7ED5" />
<rect x="155" y="70" width="5" height="5" fill="#CE7ED5" />
<rect x="160" y="70" width="5" height="5" fill="#CE7ED5" />
<rect x="165" y="70" width="5" height="5" fill="#CE7ED5" />
<rect x="145" y="75" width="5" height="5" fill="#CE7ED5" />
<rect x="150" y="75" width="5" height="5" fill="#CE7ED5" />
<rect x="155" y="75" width="5" height="5" fill="#CE7ED5" />
<rect x="160" y="75" width="5" height="5" fill="#CE7ED5" />
<rect x="165" y="75" width="5" height="5" fill="#CE7ED5" />
<rect x="145" y="80" width="5" height="5" fill="#CE7ED5" />
<rect x="150" y="80" width="5" height="5" fill="#CE7ED5" />
<rect x="155" y="80" width="5" height="5" fill="#CE7ED5" />
<rect x="160" y="80" width="5" height="5" fill="#CE7ED5" />
<rect x="165" y="80" width="5" height="5" fill="#CE7ED5" />
<rect x="145" y="85" width="5" height="5" fill="#CE7ED5" />
<rect x="150" y="85" width="5" height="5" fill="#CE7ED5" />
<rect x="155" y="85" width="5" height="5" fill="#CE7ED5" />
<rect x="160" y="85" width="5" height="5" fill="#CE7ED5" />
<rect x="165" y="85" width="5" height="5" fill="#CE7ED5" />
<rect x="145" y="90" width="5" height="5" fill="#CE7ED5" />
<rect x="150" y="90" width="5" height="5" fill="#CE7ED5" />
<rect x="155" y="90" width="5" height="5" fill="#CE7ED5" />
<rect x="160" y="90" width="5" height="5" fill="#CE7ED5" />
<rect x="165" y="90" width="5" height="5" fill="#CE7ED5" />
<rect x="145" y="95" width="5" height="5" fill="#CE7ED5" />
<rect x="150" y="95" width="5" height="5" fill="#CE7ED5" />
<rect x="155" y="95" width="5" height="5" fill="#CE7ED5" />
<rect x="160" y="95" width="5" height="5" fill="#CE7ED5" />
<rect x="165" y="95" width="5" height="5" fill="#CE7ED5" />
<rect x="145" y="100" width="5" height="5" fill="#CE7ED5" />
<rect x="150" y="100" width="5" height="5" fill="#CE7ED5" />
<rect x="155" y="100" width="5" height="5" fill="#CE7ED5" />
<rect x="160" y="100" width="5" height="5" fill="#CE7ED5" />
<rect x="165" y="100" width="5" height="5" fill="#CE7ED5" />
<rect x="145" y="105" width="5" height="5" fill="#CE7ED5" />
<rect x="150" y="105" width="5" height="5" fill="#CE7ED5" />
<rect x="155" y="105" width="5" height="5" fill="#CE7ED5" />
<rect x="160" y="105" width="5" height="5" fill="#CE7ED5" />
<rect x="165" y="105" width="5" height="5" fill="#CE7ED5" />
<rect x="145" y="110" width="5" height="5" fill="#CE7ED5" />
<rect x="150" y="110" width="5" height="5" fill="#CE7ED5" />
<rect x="155" y="110" width="5" height="5" fill="#CE7ED5" />
<rect x="160" y="110" width="5" height="5" fill="#CE7ED5" />
<rect x="165" y="110" width="5" height="5" fill="#CE7ED5" />
<rect x="30" y="115" width="5" height="5" fill="#CE7ED5" />
<rect x="35" y="115" width="5" height="5" fill="#CE7ED5" />
<rect x="40" y="115" width="5" height="5" fill="#CE7ED5" />
<rect x="30" y="120" width="5" height="5" fill="#CE7ED5" />
<rect x="35" y="120" width="5" height="5" fill="#CE7ED5" />
<rect x="40" y="120" width="5" height="5" fill="#CE7ED5" />
<rect x="30" y="125" width="5" height="5" fill="#CE7ED5" />
<rect x="35" y="125" width="5" height="5" fill="#CE7ED5" />
<rect x="40" y="125" width="5" height="5" fill="#CE7ED5" />
<rect x="30" y="130" width="5" height="5" fill="#CE7ED5" />
<rect x="35" y="130" width="5" height="5" fill="#CE7ED5" />
<rect x="40" y="130" width="5" height="5" fill="#CE7ED5" />
<rect x="30" y="135" width="5" height="5" fill="#CE7ED5" />
<rect x="35" y="135" width="5" height="5" fill="#CE7ED5" />
<rect x="40" y="135" width="5" height="5" fill="#CE7ED5" />
<rect x="30" y="140" width="5" height="5" fill="#CE7ED5" />
<rect x="35" y="140" width="5" height="5" fill="#CE7ED5" />
<rect x="40" y="140" width="5" height="5" fill="#CE7ED5" />
<rect x="0" y="145" width="5" height="5" fill="#CE7ED5" />
<rect x="5" y="145" width="5" height="5" fill="#CE7ED5" />
<rect x="10" y="145" width="5" height="5" fill="#CE7ED5" />
<rect x="15" y="145" width="5" height="5" fill="#CE7ED5" />
<rect x="20" y="145" width="5" height="5" fill="#CE7ED5" />
<rect x="25" y="145" width="5" height="5" fill="#CE7ED5" />
<rect x="45" y="145" width="5" height="5" fill="#CE7ED5" />
<rect x="50" y="145" width="5" height="5" fill="#CE7ED5" />
<rect x="55" y="145" width="5" height="5" fill="#CE7ED5" />
<rect x="60" y="145" width="5" height="5" fill="#CE7ED5" />
<rect x="65" y="145" width="5" height="5" fill="#CE7ED5" />
<rect x="70" y="145" width="5" height="5" fill="#CE7ED5" />
<rect x="0" y="150" width="5" height="5" fill="#CE7ED5" />
<rect x="5" y="150" width="5" height="5" fill="#CE7ED5" />
<rect x="10" y="150" width="5" height="5" fill="#CE7ED5" />
<rect x="15" y="150" width="5" height="5" fill="#CE7ED5" />
<rect x="20" y="150" width="5" height="5" fill="#CE7ED5" />
<rect x="25" y="150" width="5" height="5" fill="#CE7ED5" />
<rect x="45" y="150" width="5" height="5" fill="#CE7ED5" />
<rect x="50" y="150" width="5" height="5" fill="#CE7ED5" />
<rect x="55" y="150" width="5" height="5" fill="#CE7ED5" />
<rect x="60" y="150" width="5" height="5" fill="#CE7ED5" />
<rect x="65" y="150" width="5" height="5" fill="#CE7ED5" />
<rect x="70" y="150" width="5" height="5" fill="#CE7ED5" />
<rect x="0" y="155" width="5" height="5" fill="#CE7ED5" />
<rect x="5" y="155" width="5" height="5" fill="#CE7ED5" />
<rect x="10" y="155" width="5" height="5" fill="#CE7ED5" />
<rect x="15" y="155" width="5" height="5" fill="#CE7ED5" />
<rect x="20" y="155" width="5" height="5" fill="#CE7ED5" />
<rect x="25" y="155" width="5" height="5" fill="#CE7ED5" />
<rect x="45" y="155" width="5" height="5" fill="#CE7ED5" />
<rect x="50" y="155" width="5" height="5" fill="#CE7ED5" />
<rect x="55" y="155" width="5" height="5" fill="#CE7ED5" />
<rect x="60" y="155" width="5" height="5" fill="#CE7ED5" />
<rect x="65" y="155" width="5" height="5" fill="#CE7ED5" />
<rect x="70" y="155" width="5" height="5" fill="#CE7ED5" />
<rect x="30" y="160" width="5" height="5" fill="#CE7ED5" />
<rect x="35" y="160" width="5" height="5" fill="#CE7ED5" />
<rect x="40" y="160" width="5" height="5" fill="#CE7ED5" />
<rect x="135" y="160" width="5" height="5" fill="#CE7ED5" />
<rect x="140" y="160" width="5" height="5" fill="#CE7ED5" />
<rect x="30" y="165" width="5" height="5" fill="#CE7ED5" />
<rect x="35" y="165" width="5" height="5" fill="#CE7ED5" />
<rect x="40" y="165" width="5" height="5" fill="#CE7ED5" />
<rect x="135" y="165" width="5" height="5" fill="#CE7ED5" />
<rect x="140" y="165" width="5" height="5" fill="#CE7ED5" />
<rect x="30" y="170" width="5" height="5" fill="#CE7ED5" />
<rect x="35" y="170" width="5" height="5" fill="#CE7ED5" />
<rect x="40" y="170" width="5" height="5" fill="#CE7ED5" />
<rect x="135" y="170" width="5" height="5" fill="#CE7ED5" />
<rect x="140" y="170" width="5" height="5" fill="#CE7ED5" />
<rect x="30" y="175" width="5" height="5" fill="#CE7ED5" />
<rect x="35" y="175" width="5" height="5" fill="#CE7ED5" />
<rect x="40" y="175" width="5" height="5" fill="#CE7ED5" />
<rect x="135" y="175" width="5" height="5" fill="#CE7ED5" />
<rect x="140" y="175" width="5" height="5" fill="#CE7ED5" />
<rect x="30" y="180" width="5" height="5" fill="#CE7ED5" />
<rect x="35" y="180" width="5" height="5" fill="#CE7ED5" />
<rect x="40" y="180" width="5" height="5" fill="#CE7ED5" />
<rect x="135" y="180" width="5" height="5" fill="#CE7ED5" />
<rect x="140" y="180" width="5" height="5" fill="#CE7ED5" />
<rect x="30" y="185" width="5" height="5" fill="#CE7ED5" />
<rect x="35" y="185" width="5" height="5" fill="#CE7ED5" />
<rect x="40" y="185" width="5" height="5" fill="#CE7ED5" />
<rect x="110" y="185" width="5" height="5" fill="#CE7ED5" />
<rect x="115" y="185" width="5" height="5" fill="#CE7ED5" />
<rect x="120" y="185" width="5" height="5" fill="#CE7ED5" />
<rect x="125" y="185" width="5" height="5" fill="#CE7ED5" />
<rect x="130" y="185" width="5" height="5" fill="#CE7ED5" />
<rect x="145" y="185" width="5" height="5" fill="#CE7ED5" />
<rect x="150" y="185" width="5" height="5" fill="#CE7ED5" />
<rect x="155" y="185" width="5" height="5" fill="#CE7ED5" />
<rect x="160" y="185" width="5" height="5" fill="#CE7ED5" />
<rect x="165" y="185" width="5" height="5" fill="#CE7ED5" />
<rect x="110" y="190" width="5" height="5" fill="#CE7ED5" />
<rect x="115" y="190" width="5" height="5" fill="#CE7ED5" />
<rect x="120" y="190" width="5" height="5" fill="#CE7ED5" />
<rect x="125" y="190" width="5" height="5" fill="#CE7ED5" />
<rect x="130" y="190" width="5" height="5" fill="#CE7ED5" />
<rect x="145" y="190" width="5" height="5" fill="#CE7ED5" />
<rect x="150" y="190" width="5" height="5" fill="#CE7ED5" />
<rect x="155" y="190" width="5" height="5" fill="#CE7ED5" />
<rect x="160" y="190" width="5" height="5" fill="#CE7ED5" />
<rect x="165" y="190" width="5" height="5" fill="#CE7ED5" />
<rect x="135" y="195" width="5" height="5" fill="#CE7ED5" />
<rect x="140" y="195" width="5" height="5" fill="#CE7ED5" />
<rect x="135" y="200" width="5" height="5" fill="#CE7ED5" />
<rect x="140" y="200" width="5" height="5" fill="#CE7ED5" />
<rect x="135" y="205" width="5" height="5" fill="#CE7ED5" />
<rect x="140" y="205" width="5" height="5" fill="#CE7ED5" />
<rect x="135" y="210" width="5" height="5" fill="#CE7ED5" />
<rect x="140" y="210" width="5" height="5" fill="#CE7ED5" />
<rect x="135" y="215" width="5" height="5" fill="#CE7ED5" />
<rect x="140" y="215" width="5" height="5" fill="#CE7ED5" />
</svg>