<?xml version="1.0" encoding="UTF-8" ?>
<svg version="1.1" width="215" height="220" xmlns="http://www.w3.org/2000/svg" shape-rendering="crispEdges">
<rect x="45" y="0" width="5" height="5" fill="#CE7ED5" />
<rect x="50" y="0" width="5" height="5" fill="#CE7ED5" />
<rect x="55" y="0" width="5" height="5" fill="#CE7ED5" />
<rect x="60" y="0" width="5" height="5" fill="#CE7ED5" />
<rect x="65" y="0" width="5" height="5" fill="#CE7ED5" />
<rect x="45" y="5" width="5" height="5" fill="#CE7ED5" />
<rect x="50" y="5" width="5" height="5" fill="#CE7ED5" />
<rect x="55" y="5" width="5" height="5" fill="#CE7ED5" />
<rect x="60" y="5" width="5" height="5" fill="#CE7ED5" />
<rect x="65" y="5" width="5" height="5" fill="#CE7ED5" />
<rect x="45" y="10" width="5" height="5" fill="#CE7ED5" />
<rect x="50" y="10" width="5" height="5" fill="#CE7ED5" />
<rect x="55" y="10" width="5" height="5" fill="#CE7ED5" />
<rect x="60" y="10" width="5" height="5" fill="#CE7ED5" />
<rect x="65" y="10" width="5" height="5" fill="#CE7ED5" />
<rect x="45" y="15" width="5" height="5" fill="#CE7ED5" />
<rect x="50" y="15" width="5" height="5" fill="#CE7ED5" />
<rect x="55" y="15" width="5" height="5" fill="#CE7ED5" />
<rect x="60" y="15" width="5" height="5" fill="#CE7ED5" />
<rect x="65" y="15" width="5" height="5" fill="#CE7ED5" />
<rect x="45" y="20" width="5" height="5" fill="#CE7ED5" />
<rect x="50" y="20" width="5" height="5" fill="#CE7ED5" />
<rect x="55" y="20" width="5" height="5" fill="#CE7ED5" />
<rect x="60" y="20" width="5" height="5" fill="#CE7ED5" />
<rect x="65" y="20" width="5" height="5" fill="#CE7ED5" />
<rect x="45" y="25" width="5" height="5" fill="#CE7ED5" />
<rect x="50" y="25" width="5" height="5" fill="#CE7ED5" />
<rect x="55" y="25" width="5" height="5" fill="#CE7ED5" />
<rect x="60" y="25" width="5" height="5" fill="#CE7ED5" />
<rect x="65" y="25" width="5" height="5" fill="#CE7ED5" />
<rect x="45" y="30" width="5" height="5" fill="#CE7ED5" />
<rect x="50" y="30" width="5" height="5" fill="#CE7ED5" />
<rect x="55" y="30" width="5" height="5" fill="#CE7ED5" />
<rect x="60" y="30" width="5" height="5" fill="#CE7ED5" />
<rect x="65" y="30" width="5" height="5" fill="#CE7ED5" />
<rect x="45" y="35" width="5" height="5" fill="#CE7ED5" />
<rect x="50" y="35" width="5" height="5" fill="#CE7ED5" />
<rect x="55" y="35" width="5" height="5" fill="#CE7ED5" />
<rect x="60" y="35" width="5" height="5" fill="#CE7ED5" />
<rect x="65" y="35" width="5" height="5" fill="#CE7ED5" />
<rect x="45" y="40" width="5" height="5" fill="#CE7ED5" />
<rect x="50" y="40" width="5" height="5" fill="#CE7ED5" />
<rect x="55" y="40" width="5" height="5" fill="#CE7ED5" />
<rect x="60" y="40" width="5" height="5" fill="#CE7ED5" />
<rect x="65" y="40" width="5" height="5" fill="#CE7ED5" />
<rect x="0" y="45" width="5" height="5" fill="#CE7ED5" />
<rect x="5" y="45" width="5" height="5" fill="#CE7ED5" />
<rect x="10" y="45" width="5" height="5" fill="#CE7ED5" />
<rect x="15" y="45" width="5" height="5" fill="#CE7ED5" />
<rect x="20" y="45" width="5" height="5" fill="#CE7ED5" />
<rect x="25" y="45" width="5" height="5" fill="#CE7ED5" />
<rect x="30" y="45" width="5" height="5" fill="#CE7ED5" />
<rect x="35" y="45" width="5" height="5" fill="#CE7ED5" />
<rect x="40" y="45" width="5" height="5" fill="#CE7ED5" />
<rect x="70" y="45" width="5" height="5" fill="#CE7ED5" />
<rect x="75" y="45" width="5" height="5" fill="#CE7ED5" />
<rect x="80" y="45" width="5" height="5" fill="#CE7ED5" />
<rect x="85" y="45" width="5" height="5" fill="#CE7ED5" />
<rect x="90" y="45" width="5" height="5" fill="#CE7ED5" />
<rect x="95" y="45" width="5" height="5" fill="#CE7ED5" />
<rect x="100" y="45" width="5" height="5" fill="#CE7ED5" />
<rect x="105" y="45" width="5" height="5" fill="#CE7ED5" />
<rect x="110" y="45" width="5" height="5" fill="#CE7ED5" />
<rect x="0" y="50" width="5" height="5" fill="#CE7ED5" />
<rect x="5" y="50" width="5" height="5" fill="#CE7ED5" />
<rect x="10" y="50" width="5" height="5" fill="#CE7ED5" />
<rect x="15" y="50" width="5" height="5" fill="#CE7ED5" />
<rect x="20" y="50" width="5" height="5" fill="#CE7ED5" />
<rect x="25" y="50" width="5" height="5" fill="#CE7ED5" />
<rect x="30" y="50" width="5" height="5" fill="#CE7ED5" />
<rect x="35" y="50" width="5" height="5" fill="#CE7ED5" />
<rect x="40" y="50" width="5" height="5" fill="#CE7ED5" />
<rect x="70" y="50" width="5" height="5" fill="#CE7ED5" />
<rect x="75" y="50" width="5" height="5" fill="#CE7ED5" />
<rect x="80" y="50" width="5" height="5" fill="#CE7ED5" />
<rect x="85" y="50" width="5" height="5" fill="#CE7ED5" />
<rect x="90" y="50" width="5" height="5" fill="#CE7ED5" />
<rect x="95" y="50" width="5" height="5" fill="#CE7ED5" />
<rect x="100" y="50" width="5" height="5" fill="#CE7ED5" />
<rect x="105" y="50" width="5" height="5" fill="#CE7ED5" />
<rect x="110" y="50" width="5" height="5" fill="#CE7ED5" />
<rect x="0" y="55" width="5" height="5" fill="#CE7ED5" />
<rect x="5" y="55" width="5" height="5" fill="#CE7ED5" />
<rect x="10" y="55" width="5" height="5" fill="#CE7ED5" />
<rect x="15" y="55" width="5" height="5" fill="#CE7ED5" />
<rect x="20" y="55" width="5" height="5" fill="#CE7ED5" />
<rect x="25" y="55" width="5" height="5" fill="#CE7ED5" />
<rect x="30" y="55" width="5" height="5" fill="#CE7ED5" />
<rect x="35" y="55" width="5" height="5" fill="#CE7ED5" />
<rect x="40" y="55" width="5" height="5" fill="#CE7ED5" />
<rect x="70" y="55" width="5" height="5" fill="#CE7ED5" />
<rect x="75" y="55" width="5" height="5" fill="#CE7ED5" />
<rect x="80" y="55" width="5" height="5" fill="#CE7ED5" />
<rect x="85" y="55" width="5" height="5" fill="#CE7ED5" />
<rect x="90" y="55" width="5" height="5" fill="#CE7ED5" />
<rect x="95" y="55" width="5" height="5" fill="#CE7ED5" />
<rect x="100" y="55" width="5" height="5" fill="#CE7ED5" />
<rect x="105" y="55" width="5" height="5" fill="#CE7ED5" />
<rect x="110" y="55" width="5" height="5" fill="#CE7ED5" />
<rect x="0" y="60" width="5" height="5" fill="#CE7ED5" />
<rect x="5" y="60" width="5" height="5" fill="#CE7ED5" />
<rect x="10" y="60" width="5" height="5" fill="#CE7ED5" />
<rect x="15" y="60" width="5" height="5" fill="#CE7ED5" />
<rect x="20" y="60" width="5" height="5" fill="#CE7ED5" />
<rect x="25" y="60" width="5" height="5" fill="#CE7ED5" />
<rect x="30" y="60" width="5" height="5" fill="#CE7ED5" />
<rect x="35" y="60" width="5" height="5" fill="#CE7ED5" />
<rect x="40" y="60" width="5" height="5" fill="#CE7ED5" />
<rect x="70" y="60" width="5" height="5" fill="#CE7ED5" />
<rect x="75" y="60" width="5" height="5" fill="#CE7ED5" />
<rect x="80" y="60" width="5" height="5" fill="#CE7ED5" />
<rect x="85" y="60" width="5" height="5" fill="#CE7ED5" />
<rect x="90" y="60" width="5" height="5" fill="#CE7ED5" />
<rect x="95" y="60" width="5" height="5" fill="#CE7ED5" />
<rect x="100" y="60" width="5" height="5" fill="#CE7ED5" />
<rect x="105" y="60" width="5" height="5" fill="#CE7ED5" />
<rect x="110" y="60" width="5" height="5" fill="#CE7ED5" />
<rect x="0" y="65" width="5" height="5" fill="#CE7ED5" />
<rect x="5" y="65" width="5" height="5" fill="#CE7ED5" />
<rect x="10" y="65" width="5" height="5" fill="#CE7ED5" />
<rect x="15" y="65" width="5" height="5" fill="#CE7ED5" />
<rect x="20" y="65" width="5" height="5" fill="#CE7ED5" />
<rect x="25" y="65" width="5" height="5" fill="#CE7ED5" />
<rect x="30" y="65" width="5" height="5" fill="#CE7ED5" />
<rect x="35" y="65" width="5" height="5" fill="#CE7ED5" />
<rect x="40" y="65" width="5" height="5" fill="#CE7ED5" />
<rect x="70" y="65" width="5" height="5" fill="#CE7ED5" />
<rect x="75" y="65" width="5" height="5" fill="#CE7ED5" />
<rect x="80" y="65" width="5" height="5" fill="#CE7ED5" />
<rect x="85" y="65" width="5" height="5" fill="#CE7ED5" />
<rect x="90" y="65" width="5" height="5" fill="#CE7ED5" />
<rect x="95" y="65" width="5" height="5" fill="#CE7ED5" />
<rect x="100" y="65" width="5" height="5" fill="#CE7ED5" />
<rect x="105" y="65" width="5" height="5" fill="#CE7ED5" />
<rect x="110" y="65" width="5" height="5" fill="#CE7ED5" />
<rect x="45" y="70" width="5" height="5" fill="#CE7ED5" />
<rect x="50" y="70" width="5" height="5" fill="#CE7ED5" />
<rect x="55" y="70" width="5" height="5" fill="#CE7ED5" />
<rect x="60" y="70" width="5" height="5" fill="#CE7ED5" />
<rect x="65" y="70" width="5" height="5" fill="#CE7ED5" />
<rect x="45" y="75" width="5" height="5" fill="#CE7ED5" />
<rect x="50" y="75" width="5" height="5" fill="#CE7ED5" />
<rect x="55" y="75" width="5" height="5" fill="#CE7ED5" />
<rect x="60" y="75" width="5" height="5" fill="#CE7ED5" />
<rect x="65" y="75" width="5" height="5" fill="#CE7ED5" />
<rect x="45" y="80" width="5" height="5" fill="#CE7ED5" />
<rect x="50" y="80" width="5" height="5" fill="#CE7ED5" />
<rect x="55" y="80" width="5" height="5" fill="#CE7ED5" />
<rect x="60" y="80" width="5" height="5" fill="#CE7ED5" />
<rect x="65" y="80" width="5" height="5" fill="#CE7ED5" />
<rect x="45" y="85" width="5" height="5" fill="#CE7ED5" />
<rect x="50" y="85" width="5" height="5" fill="#CE7ED5" />
<rect x="55" y="85" width="5" height="5" fill="#CE7ED5" />
<rect x="60" y="85" width="5" height="5" fill="#CE7ED5" />
<rect x="65" y="85" width="5" height="5" fill="#CE7ED5" />
<rect x="45" y="90" width="5" height="5" fill="#CE7ED5" />
<rect x="50" y="90" width="5" height="5" fill="#CE7ED5" />
<rect x="55" y="90" width="5" height="5" fill="#CE7ED5" />
<rect x="60" y="90" width="5" height="5" fill="#CE7ED5" />
<rect x="65" y="90" width="5" height="5" fill="#CE7ED5" />
<rect x="45" y="95" width="5" height="5" fill="#CE7ED5" />
<rect x="50" y="95" width="5" height="5" fill="#CE7ED5" />
<rect x="55" y="95" width="5" height="5" fill="#CE7ED5" />
<rect x="60" y="95" width="5" height="5" fill="#CE7ED5" />
<rect x="65" y="95" width="5" height="5" fill="#CE7ED5" />
<rect x="45" y="100" width="5" height="5" fill="#CE7ED5" />
<rect x="50" y="100" width="5" height="5" fill="#CE7ED5" />
<rect x="55" y="100" width="5" height="5" fill="#CE7ED5" />
<rect x="60" y="100" width="5" height="5" fill="#CE7ED5" />
<rect x="65" y="100" width="5" height="5" fill="#CE7ED5" />
<rect x="45" y="105" width="5" height="5" fill="#CE7ED5" />
<rect x="50" y="105" width="5" height="5" fill="#CE7ED5" />
<rect x="55" y="105" width="5" height="5" fill="#CE7ED5" />
<rect x="60" y="105" width="5" height="5" fill="#CE7ED5" />
<rect x="65" y="105" width="5" height="5" fill="#CE7ED5" />
<rect x="45" y="110" width="5" height="5" fill="#CE7ED5" />
<rect x="50" y="110" width="5" height="5" fill="#CE7ED5" />
<rect x="55" y="110" width="5" height="5" fill="#CE7ED5" />
<rect x="60" y="110" width="5" height="5" fill="#CE7ED5" />
<rect x="65" y="110" width="5" height="5" fill="#CE7ED5" />
<rect x="170" y="115" width="5" height="5" fill="#CE7ED5" />
<rect x="175" y="115" width="5" height="5" fill="#CE7ED5" />
<rect x="180" y="115" width="5" height="5" fill="#CE7ED5" />
<rect x="170" y="120" width="5" height="5" fill="#CE7ED5" />
<rect x="175" y="120" width="5" height="5" fill="#CE7ED5" />
<rect x="180" y="120" width="5" height="5" fill="#CE7ED5" />
<rect x="170" y="125" width="5" height="5" fill="#CE7ED5" />
<rect x="175" y="125" width="5" height="5" fill="#CE7ED5" />
<rect x="180" y="125" width="5" height="5" fill="#CE7ED5" />
<rect x="170" y="130" width="5" height="5" fill="#CE7ED5" />
<rect x="175" y="130" width="5" height="5" fill="#CE7ED5" />
<rect x="180" y="130" width="5" height="5" fill="#CE7ED5" />
<rect x="170" y="135" width="5" height="5" fill="#CE7ED5" />
<rect x="175" y="135" width="5" height="5" fill="#CE7ED5" />
<rect x="180" y="135" width="5" height="5" fill="#CE7ED5" />
<rect x="170" y="140" width="5" height="5" fill="#CE7ED5" />
<rect x="175" y="140" width="5" height="5" fill="#CE7ED5" />
<rect x="180" y="140" width="5" height="5" fill="#CE7ED5" />
<rect x="140" y="145" width="5" height="5" fill="#CE7ED5" />
<rect x="145" y="145" width="5" height="5" fill="#CE7ED5" />
<rect x="150" y="145" width="5" height="5" fill="#CE7ED5" />
<rect x="155" y="145" width="5" height="5" fill="#CE7ED5" />
<rect x="160" y="145" width="5" height="5" fill="#CE7ED5" />
<rect x="165" y="145" width="5" height="5" fill="#CE7ED5" />
<rect x="185" y="145" width="5" height="5" fill="#CE7ED5" />
<rect x="190" y="145" width="5" height="5" fill="#CE7ED5" />
<rect x="195" y="145" width="5" height="5" fill="#CE7ED5" />
<rect x="200" y="145" width="5" height="5" fill="#CE7ED5" />
<rect x="205" y="145" width="5" height="5" fill="#CE7ED5" />
<rect x="210" y="145" width="5" height="5" fill="#CE7ED5" />
<rect x="140" y="150" width="5" height="5" fill="#CE7ED5" />
<rect x="145" y="150" width="5" height="5" fill="#CE7ED5" />
<rect x="150" y="150" width="5" height="5" fill="#CE7ED5" />
<rect x="155" y="150" width="5" height="5" fill="#CE7ED5" />
<rect x="160" y="150" width="5" height="5" fill="#CE7ED5" />
<rect x="165" y="150" width="5" height="5" fill="#CE7ED5" />
<rect x="185" y="150" width="5" height="5" fill="#CE7ED5" />
<rect x="190" y="150" width="5" height="5" fill="#CE7ED5" />
<rect x="195" y="150" width="5" height="5" fill="#CE7ED5" />
<rect x="200" y="150" width="5" height="5" fill="#CE7ED5" />
<rect x="205" y="150" width="5" height="5" fill="#CE7ED5" />
<rect x="210" y="150" width="5" height="5" fill="#CE7ED5" />
<rect x="140" y="155" width="5" height="5" fill="#CE7ED5" />
<rect x="145" y="155" width="5" height="5" fill="#CE7ED5" />
<rect x="150" y="155" width="5" height="5" fill="#CE7ED5" />
<rect x="155" y="155" width="5" height="5" fill="#CE7ED5" />
<rect x="160" y="155" width="5" height="5" fill="#CE7ED5" />
<rect x="165" y="155" width="5" height="5" fill="#CE7ED5" />
<rect x="185" y="155" width="5" height="5" fill="#CE7ED5" />
<rect x="190" y="155" width="5" height="5" fill="#CE7ED5" />
<rect x="195" y="155" width="5" height="5" fill="#CE7ED5" />
<rect x="200" y="155" width="5" height="5" fill="#CE7ED5" />
<rect x="205" y="155" width="5" height="5" fill="#CE7ED5" />
<rect x="210" y="155" width="5" height="5" fill="#CE7ED5" />
<rect x="70" y="160" width="5" height="5" fill="#CE7ED5" />
<rect x="75" y="160" width="5" height="5" fill="#CE7ED5" />
<rect x="170" y="160" width="5" height="5" fill="#CE7ED5" />
<rect x="175" y="160" width="5" height="5" fill="#CE7ED5" />
<rect x="180" y="160" width="5" height="5" fill="#CE7ED5" />
<rect x="70" y="165" width="5" height="5" fill="#CE7ED5" />
<rect x="75" y="165" width="5" height="5" fill="#CE7ED5" />
<rect x="170" y="165" width="5" height="5" fill="#CE7ED5" />
<rect x="175" y="165" width="5" height="5" fill="#CE7ED5" />
<rect x="180" y="165" width="5" height="5" fill="#CE7ED5" />
<rect x="70" y="170" width="5" height="5" fill="#CE7ED5" />
<rect x="75" y="170" width="5" height="5" fill="#CE7ED5" />
<rect x="170" y="170" width="5" height="5" fill="#CE7ED5" />
<rect x="175" y="170" width="5" height="5" fill="#CE7ED5" />
<rect x="180" y="170" width="5" height="5" fill="#CE7ED5" />
<rect x="70" y="175" width="5" height="5" fill="#CE7ED5" />
<rect x="75" y="175" width="5" height="5" fill="#CE7ED5" />
<rect x="170" y="175" width="5" height="5" fill="#CE7ED5" />
<rect x="175" y="175" width="5" height="5" fill="#CE7ED5" />
<rect x="180" y="175" width="5" height="5" fill="#CE7ED5" />
<rect x="70" y="180" width="5" height="5" fill="#CE7ED5" />
<rect x="75" y="180" width="5" height="5" fill="#CE7ED5" />
<rect x="170" y="180" width="5" height="5" fill="#CE7ED5" />
<rect x="175" y="180" width="5" height="5" fill="#CE7ED5" />
<rect x="180" y="180" width="5" height="5" fill="#CE7ED5" />
<rect x="45" y="185" width="5" height="5" fill="#CE7ED5" />
<rect x="50" y="185" width="5" height="5" fill="#CE7ED5" />
<rect x="55" y="185" width="5" height="5" fill="#CE7ED5" />
<rect x="60" y="185" width="5" height="5" fill="#CE7ED5" />
<rect x="65" y="185" width="5" height="5" fill="#CE7ED5" />
<rect x="80" y="185" width="5" height="5" fill="#CE7ED5" />
<rect x="85" y="185" width="5" height="5" fill="#CE7ED5" />
<rect x="90" y="185" width="5" height="5" fill="#CE7ED5" />
<rect x="95" y="185" width="5" height="5" fill="#CE7ED5" />
<rect x="100" y="185" width="5" height="5" fill="#CE7ED5" />
<rect x="170" y="185" width="5" height="5" fill="#CE7ED5" />
<rect x="175" y="185" width="5" height="5" fill="#CE7ED5" />
<rect x="180" y="185" width="5" height="5" fill="#CE7ED5" />
<rect x="45" y="190" width="5" height="5" fill="#CE7ED5" />
<rect x="50" y="190" width="5" height="5" fill="#CE7ED5" />
<rect x="55" y="190" width="5" height="5" fill="#CE7ED5" />
<rect x="60" y="190" width="5" height="5" fill="#CE7ED5" />
<rect x="65" y="190" width="5" height="5" fill="#CE7ED5" />
<rect x="80" y="190" width="5" height="5" fill="#CE7ED5" />
<rect x="85" y="190" width="5" height="5" fill="#CE7ED5" />
<rect x="90" y="190" width="5" height="5" fill="#CE7ED5" />
<rect x="95" y="190" width="5" height="5" fill="#CE7ED5" />
<rect x="100" y="190" width="5" height="5" fill="#CE7ED5" />
<rect x="70" y="195" width="5" height="5" fill="#CE7ED5" />
<rect x="75" y="195" width="5" height="5" fill="#CE7ED5" />
<rect x="70" y="200" width="5" height="5" fill="#CE7ED5" />
<rect x="75" y="200" width="5" height="5" fill="#CE7ED5" />
<rect x="70" y="205" width="5" height="5" fill="#CE7ED5" />
<rect x="75" y="205" width="5" height="5" fill="#CE7ED5" />
<rect x="70" y="210" width="5" height="5" fill="#CE7ED5" />
<rect x="75" y="210" width="5" height="5" fill="#CE7ED5" />
<rect x="70" y="215" width="5" height="5" fill="#CE7ED5" />
<rect x="75" y="215" width="5" height="5" fill="#CE7ED5" />
</svg>